<svg xmlns="http://www.w3.org/2000/svg" width="353.837" height="433.594" viewBox="0 0 353.837 433.594">
  <g id="mapa-latino" transform="translate(-888.92 -700.925)">
    <g id="Grupo_115" data-name="Grupo 115" transform="translate(889 701)">
      <g id="Grupo_80" data-name="Grupo 80" transform="translate(184.314 125.96)">
        <path id="Trazado_1898" data-name="Trazado 1898" d="M887.9,413.827l-4.832-.3.3-6.663-2.5,1.665-3.9.568-2.233-1.668h-2.765l-.268-4.165L868.639,398l3.065-3.9s1.1-5.266,2.765-6.666,10-3.065,10-3.065l1.4-1.1,1.1-5.632,1.033-6.23-3.333-4.8v-2.5h3.764l-1.9-2.5v-1.866l5.632-.2,5.563-1.933.7.867s-.634,4.4,2.5,4.8,9.166-2.067,9.364-3.132c.2-1.033,3.967-3.333,3.967-3.333l-1.068-1.464-2.064.431-.4-3.531-3.764-3.967,8.331,2.067,2.5-1.432,3.333-.634s3.732-1.031,3.732-2.064a6.557,6.557,0,0,0-.265-1.933l3.6.667-1.033,2.3,2.5,1.866-1.033,4.8,1.866,5.4,3.333,2.1,2.932-2.3,6.133-.865,2.6-.367.634-1.668h5.4l2.3,1.234,6.031-.433,4.567-9.53a12.045,12.045,0,0,1,3.93,4.7c2.768,7.2,3.868,13.862,13.331,17.194,9.431,3.333,24.294,9.6,30.258,9.731,13.064.268,32.758,15.564,22.495,26.392-18.128,19.095-13.9,18.862-17.229,34.991-3.333,16.1-3.6,25.26-25.827,29.993-20.661,4.4-11.364,16.662-18.027,27.19-5.266,8.365-11.265,16.929-16.262,22.462l-.967-7.166-8.331-7.5-2.5-.565-3.333-3.333-3.164.166.4-1.266,7.2-8.9,8.066-3.6.565-7.231-2.7-.666.466-7.664-4.733-.567.568-4.433-3.6-3.9h-8.066l-.265-8.864s0-.768.064-1.8a13.22,13.22,0,0,1,1.033-4.864,5.6,5.6,0,0,0,.568-3.9l-3.333-3.6v-3.333l-7.8.268-.265-3.9-1.4-1.1,1.665-1.1-1.1-6.133-5.563-.833-6.1-4.165-5-.833-3.065-1.668-.533-9.429h-5l-8.333,5.831Z" transform="translate(-868.291 -343.928)" fill="#c4c4c4" stroke="#fff" stroke-width="0.15"/>
        <path id="Trazado_1899" data-name="Trazado 1899" d="M957.288,520.69a.378.378,0,0,1-.1-.015.352.352,0,0,1-.24-.285l-.949-7.037L947.825,506l-2.411-.545a.375.375,0,0,1-.168-.094l-3.221-3.224-3.013.159a.407.407,0,0,1-.292-.134.348.348,0,0,1-.057-.317l.4-1.266a.406.406,0,0,1,.062-.116l7.2-8.9a.354.354,0,0,1,.129-.1l7.875-3.516.528-6.733-2.413-.595a.347.347,0,0,1-.263-.357l.446-7.34-4.406-.528a.345.345,0,0,1-.3-.387l.545-4.274-3.387-3.67H937.16a.345.345,0,0,1-.347-.335l-.265-8.861c0-.045,0-.8.067-1.836a13.288,13.288,0,0,1,1.078-5.013,5.3,5.3,0,0,0,.55-3.561l-3.271-3.531a.354.354,0,0,1-.092-.235v-2.971l-7.439.253a.353.353,0,0,1-.357-.322l-.258-3.747-1.279-1a.35.35,0,0,1-.131-.287.34.34,0,0,1,.154-.275l1.477-.976-1.016-5.66-5.318-.8a.392.392,0,0,1-.146-.057l-6.034-4.123-4.924-.823a.3.3,0,0,1-.109-.037l-3.065-1.663a.349.349,0,0,1-.181-.287l-.513-9.1H901.18l-8.241,5.766a.3.3,0,0,1-.218.062l-9.468-.565a.347.347,0,0,1-.325-.362l.27-5.979-1.928,1.284a.314.314,0,0,1-.144.057l-3.9.568a.382.382,0,0,1-.258-.064l-2.141-1.6h-2.649a.347.347,0,0,1-.347-.322l-.263-4.086-3.023-5.194a.345.345,0,0,1,.027-.389l3.015-3.836c.151-.7,1.224-5.4,2.865-6.78s9.151-2.936,10.07-3.122l1.234-.971,1.076-5.5,1.008-6.083-3.254-4.681a.362.362,0,0,1-.062-.2v-2.5a.346.346,0,0,1,.347-.347h3.068l-1.477-1.943a.36.36,0,0,1-.072-.211v-1.868a.351.351,0,0,1,.335-.347l5.58-.2,5.516-1.913a.344.344,0,0,1,.384.109l.7.865a.362.362,0,0,1,.074.268,5.6,5.6,0,0,0,.664,3.556,2.19,2.19,0,0,0,1.534.852,5.617,5.617,0,0,0,.694.037c3.38,0,8.128-2.225,8.284-2.892.2-1,2.768-2.708,3.806-3.365l-.714-.984-1.846.387a.33.33,0,0,1-.273-.057.353.353,0,0,1-.144-.243l-.387-3.417-3.685-3.88a.345.345,0,0,1-.047-.414.348.348,0,0,1,.382-.164l8.2,2.032,2.377-1.36a.309.309,0,0,1,.109-.042l3.333-.632c1.826-.508,3.449-1.316,3.449-1.725a6.291,6.291,0,0,0-.25-1.831.351.351,0,0,1,.072-.335.329.329,0,0,1,.325-.111l3.6.669a.345.345,0,0,1,.243.178.354.354,0,0,1,.01.3l-.919,2.044,2.277,1.7a.346.346,0,0,1,.131.352l-1.014,4.7,1.8,5.191,3.021,1.9,2.741-2.146a.345.345,0,0,1,.166-.072l8.529-1.2L946,356.3a.348.348,0,0,1,.325-.225h5.4a.372.372,0,0,1,.164.04l2.21,1.187,5.731-.411,4.478-9.349a.37.37,0,0,1,.235-.191.38.38,0,0,1,.295.067,12.313,12.313,0,0,1,4.039,4.847c.372.969.714,1.923,1.048,2.862,2.163,6.066,4.032,11.3,12.073,14.132,2.287.808,4.869,1.779,7.6,2.81,8.479,3.187,18.086,6.8,22.549,6.9,9.429.191,21.464,7.833,24.764,15.727a9.854,9.854,0,0,1-2.027,11.247c-14.191,14.949-14.615,18.062-15.747,26.38-.319,2.342-.681,5-1.393,8.442-.228,1.1-.441,2.173-.649,3.209-2.815,14.092-4.515,22.6-25.443,27.054-13.309,2.832-13.943,8.839-14.677,15.8-.392,3.712-.8,7.55-3.132,11.24-5.979,9.5-11.768,17.494-16.3,22.509A.346.346,0,0,1,957.288,520.69ZM945.664,504.8l2.4.543a.381.381,0,0,1,.156.082l8.331,7.5a.359.359,0,0,1,.111.213l.865,6.418A178.968,178.968,0,0,0,973.256,497.7c2.25-3.553,2.646-7.312,3.028-10.945.731-6.923,1.422-13.465,15.222-16.4,20.482-4.361,22.053-12.228,24.908-26.511q.312-1.557.649-3.211c.709-3.422,1.068-6.066,1.385-8.4,1.155-8.479,1.586-11.651,15.933-26.764a9.2,9.2,0,0,0,1.888-10.5c-3.209-7.679-14.939-15.115-24.138-15.3-4.582-.1-14.248-3.739-22.779-6.948-2.728-1.026-5.308-1.995-7.587-2.8-8.353-2.944-10.365-8.584-12.5-14.553-.332-.937-.672-1.886-1.041-2.847a11.2,11.2,0,0,0-3.484-4.277l-4.376,9.136a.35.35,0,0,1-.29.2l-6.031.431a.345.345,0,0,1-.188-.04l-2.27-1.192h-5.025l-.548,1.442a.346.346,0,0,1-.275.221L937.1,359.65l-2.859,2.242a.339.339,0,0,1-.4.02l-3.33-2.1a.331.331,0,0,1-.144-.178l-1.866-5.4a.365.365,0,0,1-.012-.186l.986-4.582-2.322-1.735a.348.348,0,0,1-.107-.421l.85-1.893-2.629-.488a7.69,7.69,0,0,1,.144,1.494c0,1.2-3.053,2.141-3.987,2.4l-3.3.627-2.448,1.4a.325.325,0,0,1-.258.037l-7.179-1.779,2.949,3.1a.361.361,0,0,1,.094.2l.357,3.152,1.69-.352a.344.344,0,0,1,.352.136l1.068,1.465a.349.349,0,0,1-.1.5c-1.512.922-3.687,2.493-3.806,3.1-.248,1.323-5.781,3.457-8.968,3.457a5.975,5.975,0,0,1-.78-.047,2.86,2.86,0,0,1-2-1.123,6,6,0,0,1-.818-3.915l-.456-.563-5.332,1.851a.292.292,0,0,1-.1.02l-5.3.186V361.7l1.829,2.409a.346.346,0,0,1,.032.364.341.341,0,0,1-.31.191h-3.417v2.047l3.271,4.708a.345.345,0,0,1,.057.255l-1.033,6.232-1.1,5.64a.349.349,0,0,1-.124.206l-1.4,1.1a.337.337,0,0,1-.149.067c-2.292.458-8.532,1.891-9.842,2.991-1.554,1.308-2.637,6.42-2.649,6.472a.32.32,0,0,1-.067.144l-2.919,3.714,2.946,5.06a.327.327,0,0,1,.047.151l.246,3.843h2.441a.354.354,0,0,1,.208.067l2.116,1.581,3.682-.535,2.431-1.623a.34.34,0,0,1,.364-.015.349.349,0,0,1,.176.32l-.285,6.324,9,.538,8.234-5.761a.33.33,0,0,1,.2-.062h5a.35.35,0,0,1,.347.327l.523,9.238,2.842,1.544,4.941.825a.321.321,0,0,1,.141.055l6.031,4.121,5.486.823a.342.342,0,0,1,.29.28l1.1,6.13a.348.348,0,0,1-.149.352l-1.266.835,1.021.8a.331.331,0,0,1,.131.25l.245,3.566,7.463-.255a.354.354,0,0,1,.253.1.343.343,0,0,1,.1.248v3.2l3.241,3.5a.359.359,0,0,1,.08.144,5.923,5.923,0,0,1-.6,4.16,13.252,13.252,0,0,0-.991,4.72c-.064,1.016-.064,1.772-.064,1.777l.255,8.517h7.726a.34.34,0,0,1,.255.111l3.6,3.9a.344.344,0,0,1,.089.28l-.523,4.086,4.386.525a.346.346,0,0,1,.3.364l-.448,7.377,2.418.595a.352.352,0,0,1,.263.367l-.568,7.23a.343.343,0,0,1-.2.288l-7.991,3.568-7.1,8.779-.23.726,2.666-.139a.32.32,0,0,1,.265.1Z" transform="translate(-868.499 -344.139)" fill="#c4c4c4" stroke="#fff" stroke-width="0.15"/>
      </g>
      <g id="Grupo_81" data-name="Grupo 81" transform="translate(266.792 123.066)">
        <path id="Trazado_1900" data-name="Trazado 1900" d="M915.221,349.21l-4.567,9.53-6.031.434-2.3-1.234h-.134l2.233-6.264-2.5-3.533,3-5.03A50.913,50.913,0,0,1,915.221,349.21Z" transform="translate(-901.577 -342.763)" fill="#c4c4c4" stroke="#fff" stroke-width="0.15"/>
        <path id="Trazado_1901" data-name="Trazado 1901" d="M904.83,359.727a.34.34,0,0,1-.164-.04L902.4,358.5a.348.348,0,0,1-.327-.463l2.173-6.1-2.4-3.385a.35.35,0,0,1-.012-.379l3-5.03a.341.341,0,0,1,.444-.136,51.092,51.092,0,0,1,10.37,6.14.347.347,0,0,1,.094.421l-4.564,9.533a.349.349,0,0,1-.29.2l-6.031.431Zm-1.985-1.8,2.059,1.105,5.732-.411,4.361-9.1a50.794,50.794,0,0,0-9.731-5.746l-2.721,4.567,2.369,3.35a.356.356,0,0,1,.042.32Z" transform="translate(-901.784 -342.971)" fill="#c4c4c4" stroke="#fff" stroke-width="0.15"/>
      </g>
      <g id="Grupo_82" data-name="Grupo 82" transform="translate(250.964 283.254)">
        <path id="Trazado_1902" data-name="Trazado 1902" d="M916.363,419.154l.967,7.166a38.355,38.355,0,0,1-3.732,3.665c-4.634,3.866-15.029-1.365-17.162-1.266l-.9-1.8,1.1-11.4,2.4-7.6,3.164-.166,3.333,3.333,2.5.565Z" transform="translate(-895.189 -407.41)" fill="#c4c4c4" stroke="#fff" stroke-width="0.15"/>
        <path id="Trazado_1903" data-name="Trazado 1903" d="M909.059,431.967a33.042,33.042,0,0,1-9.181-1.883,16.127,16.127,0,0,0-3.174-.81.452.452,0,0,1-.374-.193l-.9-1.8a.333.333,0,0,1-.035-.188l1.1-11.4,2.414-7.669a.348.348,0,0,1,.315-.243l3.164-.166a.319.319,0,0,1,.265.1l3.258,3.261,2.4.543a.377.377,0,0,1,.156.082l8.331,7.5a.36.36,0,0,1,.112.213l.966,7.164a.361.361,0,0,1-.087.28,38.462,38.462,0,0,1-3.769,3.7A7.54,7.54,0,0,1,909.059,431.967Zm-12.2-3.378a18.464,18.464,0,0,1,3.224.83,32.486,32.486,0,0,0,8.975,1.851,6.9,6.9,0,0,0,4.522-1.343,37.2,37.2,0,0,0,3.588-3.514l-.927-6.876-8.17-7.355-2.411-.545a.377.377,0,0,1-.168-.094l-3.221-3.224-2.773.146-2.327,7.367L896.1,427.061Z" transform="translate(-895.396 -407.617)" fill="#c4c4c4" stroke="#fff" stroke-width="0.15"/>
      </g>
      <g id="Grupo_83" data-name="Grupo 83" transform="translate(186.971 244.099)">
        <path id="Trazado_1904" data-name="Trazado 1904" d="M937.2,431.278l-2.4,7.6-1.1,11.4.9,1.8a.351.351,0,0,0-.335.134c-2.832,3.8,12.764,12.229,3.033,20.559-5.5,4.7-19.293,1.467-19.162,8.066.3,12.5-11.929,7.2-11.929,9.7,0,3.167.134,15.1-1.668,18.329-2.765,5-11.661,5.831-8.9,11.963,2.8,6.1,11.4,6.366,2.233,15.261-11.332,10.965-8.9,17.663-6.665,23.327l-1.633.067-.032-.632s-8.9-1.933-11.663-1.933a3.947,3.947,0,0,1-3.6-2.768l-1.133-6.963a15.329,15.329,0,0,1-3.033-.268c-.4-.134-.466-2.2-.367-4.5.168-2.664.567-5.6,1.2-6.063,1.1-.833,1.365-5.833,3.03-9.7a46.466,46.466,0,0,0,2.233-6.13l1.4-6.931-.832-2.768,1.365-2.5-1.933-1.668,1.1-4.165-2.2-1.665-1.667-4.733,2.765-1.4s.833-17.194,2.5-18.594,0-6.4-.268-10.264c-.3-3.9,1.933-5.565,3.866-8.9,1.967-3.33,2.5-10.828,2.5-10.828l-2.2-3.9-.3-7.763,3.333-2.765-.533-10,1.933-.3,3.6-6.666-.265-7.2.565-3.333,4.433-2.5.568-5.565,3.866-4.165,2.233.833,3.6.268,2.5,3.333,1.665-4.433,5.033.268,1.633,2.8,5,3.866,3.333,1.668s8.331,5,11.131,6.4c2.765,1.4-3.333,10.563-3.333,10.563l8.6.833,3.6-1.965,4.465-3.333-.3-3.866,1.767.434,2.7.667-.565,7.231-8.066,3.6-7.2,8.9Z" transform="translate(-869.363 -391.609)" fill="#c4c4c4" stroke="#fff" stroke-width="0.15"/>
        <path id="Trazado_1905" data-name="Trazado 1905" d="M889.789,560.029a.347.347,0,0,1-.347-.327l-.017-.369c-1.484-.317-8.9-1.871-11.332-1.871a4.326,4.326,0,0,1-3.933-3.011l-1.1-6.723a13.139,13.139,0,0,1-2.842-.277c-.285-.1-.808-.27-.607-4.844.129-2.1.478-5.7,1.341-6.331.461-.349.825-1.972,1.212-3.692a33.68,33.68,0,0,1,1.707-5.863,46.712,46.712,0,0,0,2.213-6.081l1.38-6.829-.808-2.681a.34.34,0,0,1,.027-.265l1.231-2.252-1.72-1.484a.348.348,0,0,1-.109-.352l1.041-3.942-2.015-1.526a.337.337,0,0,1-.119-.161l-1.665-4.73a.346.346,0,0,1,.171-.426l2.584-1.308c.129-2.518.934-17.229,2.614-18.641,1-.845.552-3.566.119-6.2-.211-1.264-.426-2.57-.508-3.774-.231-2.993.983-4.74,2.389-6.765.5-.719,1.021-1.467,1.522-2.329,1.782-3.021,2.371-9.669,2.446-10.578l-2.148-3.809a.372.372,0,0,1-.045-.156l-.3-7.763a.352.352,0,0,1,.126-.282l3.2-2.654-.525-9.825a.347.347,0,0,1,.295-.362l1.759-.273,3.474-6.428-.263-7.1.57-3.4a.355.355,0,0,1,.174-.245l4.274-2.409.547-5.387a.338.338,0,0,1,.092-.2l3.866-4.165a.347.347,0,0,1,.377-.089l2.185.818,3.551.26a.349.349,0,0,1,.253.139l2.119,2.825,1.442-3.838a.349.349,0,0,1,.344-.223l5.033.265a.337.337,0,0,1,.28.171l1.6,2.741,4.946,3.826,3.276,1.628c.106.064,8.375,5.02,11.128,6.4a1.572,1.572,0,0,1,.828,1.063c.637,2.406-2.654,7.855-3.712,9.518l7.922.768,3.506-1.915,4.272-3.189-.285-3.675a.347.347,0,0,1,.119-.292.334.334,0,0,1,.31-.072l4.465,1.1a.352.352,0,0,1,.263.367l-.568,7.231a.344.344,0,0,1-.2.287l-7.991,3.568-7.1,8.779-2.78,8.8-1.075,11.227.855,1.71a.347.347,0,0,1-.015.337.353.353,0,0,1-.3.166c-.959,1.207.506,3.206,2.2,5.526,2.983,4.074,7.067,9.656.724,15.086-2.473,2.114-6.43,2.654-10.256,3.174-4.75.647-8.851,1.207-8.782,4.619.092,3.883-1.026,6.557-3.325,7.942-1.946,1.172-4.388,1.229-6.173,1.271-1.251.03-2.433.057-2.433.491l0,.619c.008,4.032.03,14.749-1.712,17.878-1.113,2.01-3.115,3.33-5.053,4.6-3.018,1.99-5.4,3.563-3.833,7.047a14.171,14.171,0,0,0,3.474,4.292c1.487,1.393,2.892,2.708,2.906,4.567.015,1.826-1.326,3.984-4.222,6.794-11.314,10.95-8.69,17.606-6.581,22.953a.351.351,0,0,1-.035.317.343.343,0,0,1-.275.156l-1.633.067Zm-19.3-13.222a15.381,15.381,0,0,0,2.869.233.346.346,0,0,1,.342.29l1.135,6.965a3.558,3.558,0,0,0,3.256,2.475c2.773,0,11.371,1.861,11.735,1.938a.343.343,0,0,1,.273.322l.017.292.8-.035c-2.141-5.464-4.406-12.286,6.923-23.25,2.75-2.669,4.026-4.668,4.011-6.289-.015-1.561-1.251-2.723-2.688-4.069a14.648,14.648,0,0,1-3.63-4.507c-1.816-4.029,1.051-5.917,4.084-7.914,1.866-1.232,3.8-2.5,4.827-4.364,1.653-2.974,1.631-13.938,1.623-17.541v-.619c0-1.11,1.373-1.145,3.11-1.187,1.8-.04,4.044-.094,5.833-1.172,2.1-1.261,3.075-3.66,2.986-7.327-.079-4.034,4.517-4.661,9.384-5.323,3.727-.508,7.58-1.036,9.9-3.016,5.853-5.013,2.148-10.078-.833-14.149-1.856-2.537-3.461-4.73-2.253-6.356a.623.623,0,0,1,.122-.131l-.719-1.437a.333.333,0,0,1-.035-.188l1.1-11.4,2.812-8.935a.408.408,0,0,1,.062-.116l7.2-8.9a.352.352,0,0,1,.129-.1l7.875-3.516.528-6.733-3.712-.914.263,3.387a.347.347,0,0,1-.139.307l-4.465,3.33-3.64,1.992a.423.423,0,0,1-.2.042l-8.6-.835a.351.351,0,0,1-.28-.2.345.345,0,0,1,.027-.342c1.279-1.923,4.478-7.367,3.93-9.438a.894.894,0,0,0-.468-.622c-2.775-1.39-11.066-6.358-11.151-6.41l-3.308-1.653-5.058-3.9a.369.369,0,0,1-.087-.1l-1.539-2.639-4.592-.24-1.576,4.193a.352.352,0,0,1-.275.223.359.359,0,0,1-.329-.136l-2.4-3.206-3.442-.255a.307.307,0,0,1-.094-.02l-2.015-.753-3.63,3.908-.555,5.452a.35.35,0,0,1-.173.27l-4.287,2.416-.54,3.169.273,7.126a.347.347,0,0,1-.042.178l-3.6,6.663a.355.355,0,0,1-.253.181l-1.62.25.516,9.684a.352.352,0,0,1-.124.285l-3.2,2.656.29,7.51,2.158,3.826a.34.34,0,0,1,.045.2c-.022.31-.563,7.617-2.547,10.98-.516.889-1.041,1.645-1.551,2.381-1.385,1.99-2.478,3.566-2.268,6.314.082,1.175.3,2.465.5,3.714.488,2.954.949,5.744-.357,6.844-1.13.947-2.056,11.755-2.376,18.344a.346.346,0,0,1-.188.292l-2.5,1.264,1.531,4.344,2.116,1.6a.353.353,0,0,1,.126.367l-1.046,3.955,1.769,1.526a.345.345,0,0,1,.077.429l-1.3,2.374.79,2.627a.347.347,0,0,1,.01.169l-1.4,6.931a46.72,46.72,0,0,1-2.255,6.2,32.641,32.641,0,0,0-1.667,5.739c-.468,2.086-.8,3.591-1.475,4.1-.364.27-.845,2.349-1.063,5.808C870.186,545.459,870.367,546.574,870.49,546.807Z" transform="translate(-869.571 -391.816)" fill="#c4c4c4" stroke="#fff" stroke-width="0.15"/>
      </g>
      <g id="Grupo_84" data-name="Grupo 84" transform="translate(251.996 118.203)">
        <path id="Trazado_1906" data-name="Trazado 1906" d="M913.747,346.015l-3,5.03,2.5,3.534-2.232,6.264h-5.263l-.634,1.668-2.6.367-6.564-12.03,3.965-2.1.635-7.6A78.963,78.963,0,0,1,913.747,346.015Z" transform="translate(-895.606 -340.803)" fill="#c4c4c4" stroke="#fff" stroke-width="0.15"/>
        <path id="Trazado_1907" data-name="Trazado 1907" d="M902.724,363.427a.347.347,0,0,1-.3-.178l-6.564-12.03a.343.343,0,0,1-.027-.265.338.338,0,0,1,.168-.208l3.8-2.01.617-7.409a.358.358,0,0,1,.144-.253.347.347,0,0,1,.285-.055,79.332,79.332,0,0,1,13.259,4.886.342.342,0,0,1,.186.211.339.339,0,0,1-.035.28l-2.882,4.837,2.369,3.35a.356.356,0,0,1,.042.32l-2.233,6.264a.348.348,0,0,1-.327.228H906.2l-.548,1.442a.345.345,0,0,1-.275.22l-2.6.367ZM896.633,351.2l6.279,11.51,2.161-.3.558-1.474a.348.348,0,0,1,.324-.225h5.02l2.091-5.865-2.4-3.385a.35.35,0,0,1-.012-.379l2.8-4.7a79.985,79.985,0,0,0-12.39-4.579l-.6,7.186a.345.345,0,0,1-.183.28Z" transform="translate(-895.813 -341.009)" fill="#c4c4c4" stroke="#fff" stroke-width="0.15"/>
      </g>
      <g id="Grupo_85" data-name="Grupo 85" transform="translate(232.102 232.438)">
        <path id="Trazado_1908" data-name="Trazado 1908" d="M924.28,408.911l-.466,7.664-1.767-.434.3,3.866-4.465,3.333-3.6,1.965-8.6-.833s6.1-9.163,3.333-10.563c-2.8-1.4-11.131-6.4-11.131-6.4l-3.333-1.668-5-3.866-1.633-2.8h.268l3.6-10.831,12.5-1.1,3.965,2.1c-.064,1.033-.064,1.8-.064,1.8l.265,8.864h8.066l3.6,3.9-.568,4.433Z" transform="translate(-887.578 -386.905)" fill="#c4c4c4" stroke="#fff" stroke-width="0.15"/>
        <path id="Trazado_1909" data-name="Trazado 1909" d="M914.491,425.857h-.035l-8.6-.835a.352.352,0,0,1-.28-.2.344.344,0,0,1,.027-.342c1.279-1.923,4.478-7.367,3.93-9.438a.894.894,0,0,0-.469-.622c-2.775-1.39-11.066-6.358-11.151-6.411l-3.308-1.653-5.058-3.9a.374.374,0,0,1-.087-.1l-1.633-2.8a.348.348,0,0,1,0-.347.343.343,0,0,1,.3-.173h.015l3.521-10.593a.35.35,0,0,1,.3-.238l12.5-1.1a.452.452,0,0,1,.194.04l3.965,2.1a.35.35,0,0,1,.183.332c-.064,1.016-.064,1.772-.064,1.777l.255,8.516h7.726a.34.34,0,0,1,.255.111l3.6,3.9a.343.343,0,0,1,.089.28l-.523,4.086,4.386.525a.346.346,0,0,1,.3.364l-.466,7.664a.353.353,0,0,1-.141.26.342.342,0,0,1-.29.057l-1.3-.32.263,3.387a.347.347,0,0,1-.139.307l-4.465,3.33-3.64,1.992A.36.36,0,0,1,914.491,425.857Zm-8-1.472,7.922.768,3.506-1.915,4.272-3.189-.285-3.675a.344.344,0,0,1,.429-.364l1.36.334.421-6.923-4.406-.528a.345.345,0,0,1-.3-.387l.545-4.275-3.387-3.67h-7.912a.345.345,0,0,1-.347-.335l-.265-8.861c0-.04,0-.694.052-1.611l-3.677-1.945-12.166,1.068-3.529,10.613a.371.371,0,0,1-.062.116l1.365,2.342,4.946,3.826,3.276,1.628c.106.064,8.375,5.02,11.128,6.4a1.572,1.572,0,0,1,.828,1.063C910.843,417.274,907.552,422.723,906.494,424.385Z" transform="translate(-887.784 -387.11)" fill="#c4c4c4" stroke="#fff" stroke-width="0.15"/>
      </g>
      <g id="Grupo_86" data-name="Grupo 86" transform="translate(237.432 112.369)">
        <path id="Trazado_1910" data-name="Trazado 1910" d="M904.639,354.324l6.564,12.03-6.133.865-2.932,2.3-3.333-2.1-1.866-5.4,1.033-4.8-2.5-1.866,1.033-2.3-3.6-.666a3.064,3.064,0,0,0-.766-1.4,13.871,13.871,0,0,0-2.067-1.668s4.564-.865,4.564-1.9-1.033-5.833-1.033-5.833l3.9-2.8c3.831,2.632,7.231,4.966,9.7,5.365a16.85,16.85,0,0,1,2.035.466l-.634,7.6Z" transform="translate(-889.727 -338.447)" fill="#c4c4c4" stroke="#fff" stroke-width="0.15"/>
        <path id="Trazado_1911" data-name="Trazado 1911" d="M902.346,370.073a.339.339,0,0,1-.186-.054l-3.33-2.1a.33.33,0,0,1-.144-.178l-1.866-5.4a.365.365,0,0,1-.012-.186l.986-4.582-2.322-1.735a.348.348,0,0,1-.107-.421l.85-1.893-3.164-.587a.344.344,0,0,1-.273-.255,2.7,2.7,0,0,0-.676-1.241,13.526,13.526,0,0,0-2.01-1.618.349.349,0,0,1,.124-.634c2.414-.456,4.284-1.214,4.284-1.556,0-.818-.741-4.433-1.026-5.756a.351.351,0,0,1,.139-.357l3.9-2.8a.347.347,0,0,1,.4-.005c3.846,2.641,7.164,4.921,9.555,5.31a17.5,17.5,0,0,1,2.081.478.345.345,0,0,1,.243.362l-.632,7.595a.345.345,0,0,1-.183.278l-3.655,1.938,6.4,11.721a.345.345,0,0,1-.258.508l-6.039.852L902.56,370A.338.338,0,0,1,902.346,370.073ZM899.3,367.4l3.021,1.9,2.741-2.146a.345.345,0,0,1,.166-.072l5.635-.8L904.542,354.7a.343.343,0,0,1-.027-.265.338.338,0,0,1,.168-.208l3.8-2.009.595-7.127c-.632-.178-1.217-.287-1.727-.382-2.5-.4-5.8-2.651-9.629-5.28l-3.519,2.525a55.578,55.578,0,0,1,.994,5.682c0,1.008-2.423,1.715-4.054,2.076a11.789,11.789,0,0,1,1.46,1.249,3.385,3.385,0,0,1,.791,1.336l3.387.629a.346.346,0,0,1,.243.178.355.355,0,0,1,.01.3l-.919,2.044,2.277,1.7a.345.345,0,0,1,.131.352l-1.013,4.7Z" transform="translate(-889.935 -338.654)" fill="#c4c4c4" stroke="#fff" stroke-width="0.15"/>
      </g>
      <g id="Grupo_88" data-name="Grupo 88" transform="translate(240.388 404.218)">
        <g id="Grupo_87" data-name="Grupo 87">
          <path id="Trazado_1912" data-name="Trazado 1912" d="M896.18,456.941l.032-.1c1.6.335,5.3-.265,6.931-.265,1.633-.035,3.534.632,4,2.233.433,1.4-5,2.364-6.331,3.031-3.967,1.866-4.6,1.033-8.765.6-.434-2.032-1.566-3.365.1-4.564A5.412,5.412,0,0,1,896.18,456.941Z" transform="translate(-890.922 -456.225)" fill="#c4c4c4" stroke="#fff" stroke-width="0.15"/>
          <path id="Trazado_1913" data-name="Trazado 1913" d="M896.884,463.56a14.784,14.784,0,0,1-2.3-.248c-.666-.1-1.422-.221-2.361-.317a.35.35,0,0,1-.3-.275,13.949,13.949,0,0,0-.394-1.375c-.424-1.284-.823-2.5.629-3.543a5.84,5.84,0,0,1,4.062-1.028.347.347,0,0,1,.277-.062,21.425,21.425,0,0,0,4.478-.111c.917-.084,1.786-.164,2.384-.164l.114,0c1.613,0,3.685.652,4.22,2.488a.9.9,0,0,1-.077.691c-.451.842-2.218,1.422-4.483,2.094a16.123,16.123,0,0,0-1.95.654A9.752,9.752,0,0,1,896.884,463.56Zm-4.349-1.232c.845.1,1.536.2,2.151.3a8.506,8.506,0,0,0,6.182-.892,15.485,15.485,0,0,1,2.056-.694c1.482-.439,3.72-1.105,4.069-1.757a.2.2,0,0,0,.022-.166c-.4-1.375-2.074-1.99-3.553-1.99h-.107c-.575,0-1.427.077-2.329.159a24.309,24.309,0,0,1-4.44.144.34.34,0,0,1-.258.059,5.11,5.11,0,0,0-3.771.87c-1,.721-.828,1.4-.382,2.765C892.3,461.489,892.429,461.893,892.535,462.329Z" transform="translate(-891.128 -456.434)" fill="#c4c4c4" stroke="#fff" stroke-width="0.15"/>
        </g>
      </g>
      <g id="Grupo_89" data-name="Grupo 89" transform="translate(202.642 189.949)">
        <path id="Trazado_1914" data-name="Trazado 1914" d="M905.494,424.521l-5.033-.268-1.665,4.433-2.5-3.333-3.6-.268-2.233-.833-3.865,4.165-3.333.268-1.132-5.833-1.668-6.931,1.668-2.765-2.2-1.132-1.665-5.266-2.233-1.668L877,401.06l2.233-2.067-2.1-.966.567-2.666v-3.33l1.534-1.933v-5.7l.4-2.634-1.665-3.065-1-3.033,4.631.268,8.333-5.831h5l.533,9.429,3.065,1.668,5,.833,6.1,4.165,5.563.833,1.1,6.133-1.665,1.1,1.4,1.1.265,3.9,7.8-.268v3.333l3.333,3.6a5.606,5.606,0,0,1-.568,3.9,13.22,13.22,0,0,0-1.033,4.864l-3.965-2.1-12.5,1.1-3.6,10.831Z" transform="translate(-875.687 -369.756)" fill="#c4c4c4" stroke="#fff" stroke-width="0.15"/>
        <path id="Trazado_1915" data-name="Trazado 1915" d="M883.475,429.237a.341.341,0,0,1-.339-.278L882,423.127l-1.663-6.918a.345.345,0,0,1,.04-.26l1.475-2.446-1.869-.964a.359.359,0,0,1-.173-.206l-1.633-5.156-2.141-1.6a.349.349,0,0,1-.132-.359l.966-4.034a.349.349,0,0,1,.1-.173l1.851-1.715-1.628-.746a.35.35,0,0,1-.193-.389l.565-2.666-.007-3.258a.336.336,0,0,1,.074-.216l1.46-1.839V384.6l.387-2.567-1.611-2.964-1.026-3.092a.345.345,0,0,1,.055-.32.362.362,0,0,1,.295-.134l4.512.258,8.234-5.761a.33.33,0,0,1,.2-.062h5a.35.35,0,0,1,.347.327l.523,9.238,2.842,1.544,4.941.825a.321.321,0,0,1,.141.055l6.031,4.121,5.486.823a.342.342,0,0,1,.29.28l1.1,6.13a.348.348,0,0,1-.149.352l-1.266.835,1.021.8a.331.331,0,0,1,.131.25l.245,3.566,7.464-.255a.353.353,0,0,1,.253.1.343.343,0,0,1,.1.248v3.2l3.241,3.5a.358.358,0,0,1,.08.144,5.924,5.924,0,0,1-.6,4.16,13.254,13.254,0,0,0-.991,4.72.343.343,0,0,1-.176.278.331.331,0,0,1-.332.005l-3.876-2.049-12.166,1.068L906.3,424.834a.341.341,0,0,1-.33.238H905.7l-4.8-.25-1.576,4.193a.353.353,0,0,1-.275.223.359.359,0,0,1-.33-.136l-2.4-3.206-3.442-.255a.309.309,0,0,1-.094-.02l-2.014-.753-3.71,3.994a.345.345,0,0,1-.225.112l-3.333.265Zm-2.428-13.051,1.633,6.792,1.078,5.543,2.887-.23,3.774-4.066a.346.346,0,0,1,.377-.089l2.185.818,3.551.26a.35.35,0,0,1,.253.139l2.118,2.825,1.442-3.838a.349.349,0,0,1,.344-.223l5.028.265,3.521-10.593a.35.35,0,0,1,.3-.238l12.5-1.1a.453.453,0,0,1,.194.04l3.494,1.851a12.2,12.2,0,0,1,1.041-4.483,5.294,5.294,0,0,0,.55-3.561l-3.271-3.531a.354.354,0,0,1-.092-.235v-2.971l-7.439.253a.353.353,0,0,1-.357-.322l-.258-3.747-1.279-1a.35.35,0,0,1-.131-.287.34.34,0,0,1,.154-.275l1.477-.976-1.016-5.66-5.317-.8a.392.392,0,0,1-.146-.057l-6.034-4.123-4.924-.823a.3.3,0,0,1-.109-.037l-3.065-1.663a.35.35,0,0,1-.181-.288l-.513-9.1h-4.562l-8.241,5.766a.3.3,0,0,1-.218.062l-4.123-.235.84,2.55,1.641,3.008a.334.334,0,0,1,.037.218l-.4,2.632,0,5.645a.352.352,0,0,1-.074.216l-1.46,1.838v3.211l-.518,2.468,1.849.85a.341.341,0,0,1,.2.26.347.347,0,0,1-.107.31l-2.156,1.992-.887,3.709,2.047,1.529a.357.357,0,0,1,.124.176l1.623,5.127,2.071,1.065a.352.352,0,0,1,.139.488Z" transform="translate(-875.895 -369.963)" fill="#c4c4c4" stroke="#fff" stroke-width="0.15"/>
      </g>
      <g id="Grupo_90" data-name="Grupo 90" transform="translate(187.527 97.773)">
        <path id="Trazado_1916" data-name="Trazado 1916" d="M895.814,374.427l-2.864-3.5,1.9-1.665-2.3-4.168.833-5.63,1.033-2.3-7.7.632-4.366-4.364h-6.663c-2.934,0-2.934-5.4-2.934-5.4l.2-3.766s-3.732-.2-2.9-2.1c.833-1.866,2.7-5.2,2.7-5.2l3.8-4.066a33.73,33.73,0,0,1,9.9,1.633c5,2.233,8.333,6.666,19.429,4.465,7-1.4,14.863,4,21.395,8.5l-3.9,2.8s1.034,4.8,1.034,5.833-4.564,1.9-4.564,1.9a13.878,13.878,0,0,1,2.067,1.668,3.064,3.064,0,0,1,.766,1.4,6.565,6.565,0,0,1,.265,1.933c0,1.033-3.732,2.064-3.732,2.064l-3.333.634-2.5,1.432-8.331-2.067,3.764,3.967.4,3.531,2.064-.431,1.068,1.465s-3.766,2.3-3.967,3.333c-.2,1.065-6.229,3.533-9.364,3.132s-2.5-4.8-2.5-4.8Z" transform="translate(-869.588 -332.557)" fill="#c4c4c4" stroke="#fff" stroke-width="0.15"/>
        <path id="Trazado_1917" data-name="Trazado 1917" d="M899.958,380.689a5.971,5.971,0,0,1-.78-.047,2.861,2.861,0,0,1-2-1.123,6,6,0,0,1-.818-3.915l-3.474-4.25a.348.348,0,0,1,.042-.481l1.688-1.482-2.163-3.92a.357.357,0,0,1-.04-.22l.832-5.632a.393.393,0,0,1,.028-.092l.793-1.762-7.114.585a.378.378,0,0,1-.273-.1l-4.265-4.265H875.9c-3.244,0-3.281-5.508-3.281-5.744l.183-3.449c-.716-.074-2.272-.344-2.812-1.219a1.378,1.378,0,0,1-.04-1.336c.83-1.863,2.637-5.092,2.713-5.231l3.848-4.133a.479.479,0,0,1,.263-.109,33.74,33.74,0,0,1,10.008,1.655,31.875,31.875,0,0,1,3.231,1.737c2.765,1.623,5.627,3.3,10.531,3.3a28.286,28.286,0,0,0,5.479-.592,12.466,12.466,0,0,1,2.4-.23c6.5,0,13.576,4.869,19.258,8.784a.346.346,0,0,1,.151.285.333.333,0,0,1-.146.282l-3.714,2.669a55.6,55.6,0,0,1,.994,5.682c0,1.008-2.423,1.715-4.054,2.076a11.794,11.794,0,0,1,1.459,1.249,3.39,3.39,0,0,1,.852,1.554,6.97,6.97,0,0,1,.278,2.02c0,1.2-3.053,2.141-3.987,2.4l-3.3.627-2.448,1.4a.325.325,0,0,1-.258.037l-7.179-1.779,2.949,3.1a.361.361,0,0,1,.094.2l.357,3.152,1.69-.352a.344.344,0,0,1,.352.136l1.068,1.464a.349.349,0,0,1-.1.5c-1.511.922-3.687,2.493-3.806,3.1C908.678,378.556,903.145,380.689,899.958,380.689Zm-6.321-9.515,3.355,4.106a.363.363,0,0,1,.075.268,5.592,5.592,0,0,0,.664,3.556,2.189,2.189,0,0,0,1.534.852,5.593,5.593,0,0,0,.694.037c3.38,0,8.128-2.225,8.284-2.892.2-1,2.768-2.708,3.806-3.365l-.714-.984-1.846.387a.33.33,0,0,1-.273-.057.353.353,0,0,1-.144-.243l-.387-3.417L905,365.542a.344.344,0,0,1-.047-.414.348.348,0,0,1,.382-.163l8.2,2.032,2.376-1.36a.311.311,0,0,1,.109-.042l3.333-.632c1.826-.508,3.449-1.316,3.449-1.725a6.289,6.289,0,0,0-.25-1.831,2.733,2.733,0,0,0-.682-1.259,13.582,13.582,0,0,0-2.01-1.618.348.348,0,0,1-.151-.359.352.352,0,0,1,.275-.275c2.414-.456,4.285-1.214,4.285-1.556,0-.818-.741-4.433-1.026-5.756a.351.351,0,0,1,.139-.357l3.5-2.51c-5.533-3.809-12.32-8.385-18.458-8.385a11.67,11.67,0,0,0-2.265.218,28.714,28.714,0,0,1-5.612.6c-5.095,0-8.036-1.73-10.883-3.4a32.163,32.163,0,0,0-3.142-1.692,33.749,33.749,0,0,0-9.61-1.6l-3.69,3.952h0c.01,0-1.824,3.281-2.637,5.1a.677.677,0,0,0,0,.689c.359.59,1.786.877,2.6.924a.346.346,0,0,1,.329.364l-.2,3.764c0,.032.035,5.035,2.587,5.035h6.663a.345.345,0,0,1,.248.1l4.25,4.25,7.538-.619a.348.348,0,0,1,.344.491l-1.014,2.255-.808,5.466,2.243,4.064a.348.348,0,0,1-.075.429Z" transform="translate(-869.795 -332.764)" fill="#c4c4c4" stroke="#fff" stroke-width="0.15"/>
      </g>
      <g id="Grupo_91" data-name="Grupo 91" transform="translate(206.841 411.554)">
        <path id="Trazado_1918" data-name="Trazado 1918" d="M881.03,464.8c.833,6.4,19.427,14.729,8.9,15.829a14.21,14.21,0,0,1-1.732.1,29.239,29.239,0,0,0-9.664-3.7l-.8-17.43,1.633-.067A22.954,22.954,0,0,1,881.03,464.8Z" transform="translate(-877.383 -459.189)" fill="#c4c4c4" stroke="#fff" stroke-width="0.15"/>
        <path id="Trazado_1919" data-name="Trazado 1919" d="M888.4,481.28a.347.347,0,0,1-.171-.044c-2.052-1.165-6.021-3.189-9.54-3.658a.342.342,0,0,1-.3-.327l-.8-17.427a.364.364,0,0,1,.091-.253.342.342,0,0,1,.243-.109l1.633-.067a.343.343,0,0,1,.334.216l.094.233a21.967,21.967,0,0,1,1.594,5.117c.342,2.609,3.9,5.657,7.049,8.35,3.07,2.629,5.5,4.7,5.01,6.264-.273.877-1.375,1.385-3.472,1.606A14.818,14.818,0,0,1,888.4,481.28Zm-9.332-4.349a30.011,30.011,0,0,1,9.423,3.655,13.139,13.139,0,0,0,1.6-.1c2.168-.225,2.765-.736,2.887-1.12.349-1.125-2.27-3.365-4.8-5.533-3.239-2.77-6.909-5.912-7.283-8.787a21.422,21.422,0,0,0-1.554-4.948v0l-1.041.042Z" transform="translate(-877.59 -459.395)" fill="#c4c4c4" stroke="#fff" stroke-width="0.15"/>
      </g>
      <g id="Grupo_92" data-name="Grupo 92" transform="translate(161.82 97.741)">
        <path id="Trazado_1920" data-name="Trazado 1920" d="M911.146,374.446l-5.563,1.933-5.632.2v1.866l1.9,2.5h-3.764v2.5l3.333,4.8-1.033,6.23-1.1,5.632-3.632-1.1,2.233-4.465-3.6-1.1h-8.331l-2.8-5-1.933-1.1-2.765-3.333-3.1-.2a2.5,2.5,0,0,0-2.2-1.467c-3.33-.3-6.363.268-6.663-1.132-.2-.966-4.5-3.665-6.933-5.1,3.865-3.7,7.6-10.6,6.666-17.1-1.1-7.8,7.23-14.461,10-17.226s7.763-8.9,14.429-8.9c.434,0,.833,0,1.232.032l-3.8,4.066s-1.866,3.333-2.7,5.2c-.832,1.9,2.9,2.1,2.9,2.1l-.2,3.766s0,5.4,2.934,5.4h6.663l4.366,4.364,7.7-.632-1.033,2.3-.833,5.63,2.3,4.168-1.9,1.665Z" transform="translate(-859.214 -332.544)" fill="#c4c4c4" stroke="#fff" stroke-width="0.15"/>
        <path id="Trazado_1921" data-name="Trazado 1921" d="M899.491,400.658a.351.351,0,0,1-.1-.015l-3.63-1.1a.35.35,0,0,1-.218-.2.336.336,0,0,1,.008-.292l2.049-4.1-3.157-.966h-8.279a.343.343,0,0,1-.3-.176l-2.753-4.914-1.851-1.051a.423.423,0,0,1-.094-.082l-2.671-3.216-2.949-.193a.348.348,0,0,1-.29-.191,2.146,2.146,0,0,0-1.918-1.274c-.991-.089-1.975-.1-2.84-.112-2.161-.025-3.868-.045-4.133-1.3-.1-.486-2.262-2.218-6.77-4.872a.352.352,0,0,1-.169-.26.345.345,0,0,1,.107-.29c3.8-3.635,7.47-10.442,6.559-16.8-.994-7.052,5.449-13.123,8.911-16.387.456-.431.86-.808,1.184-1.135s.669-.684,1.048-1.08c2.837-2.961,7.587-7.919,13.629-7.919.443,0,.85,0,1.259.032a.351.351,0,0,1,.228.585l-3.8,4.066h0c.01,0-1.824,3.281-2.637,5.1a.677.677,0,0,0,0,.689c.406.662,2.056.894,2.6.924a.346.346,0,0,1,.329.364l-.2,3.764c0,.032.034,5.035,2.587,5.035h6.663a.344.344,0,0,1,.248.1l4.25,4.25,7.538-.62a.348.348,0,0,1,.344.491l-1.013,2.255-.808,5.466,2.243,4.064a.348.348,0,0,1-.074.429l-1.648,1.445,2.654,3.241a.35.35,0,0,1,.064.315.346.346,0,0,1-.221.233l-5.563,1.93a.3.3,0,0,1-.1.02l-5.3.186v1.415l1.776,2.339a.348.348,0,0,1,.139.28.382.382,0,0,1-.357.344h-3.425v2.047l3.271,4.708a.345.345,0,0,1,.057.255l-1.033,6.232-1.1,5.64a.343.343,0,0,1-.161.23A.353.353,0,0,1,899.491,400.658ZM896.354,399l2.87.867,1.026-5.253,1.008-6.083L898,383.851a.363.363,0,0,1-.062-.2v-2.5a.346.346,0,0,1,.347-.347h3.068l-1.477-1.943a.36.36,0,0,1-.072-.211v-1.868a.351.351,0,0,1,.335-.347l5.58-.2,5.047-1.749-2.552-3.115a.348.348,0,0,1,.042-.481l1.688-1.482-2.163-3.92a.358.358,0,0,1-.04-.221l.833-5.632a.384.384,0,0,1,.027-.092l.793-1.762-7.114.585a.377.377,0,0,1-.273-.1L897.747,354h-6.519c-3.244,0-3.281-5.508-3.281-5.744l.183-3.449c-.716-.074-2.272-.344-2.812-1.219a1.379,1.379,0,0,1-.04-1.336c.83-1.863,2.637-5.092,2.713-5.231l3.333-3.578c-.151,0-.3,0-.463,0-5.744,0-10.187,4.639-13.128,7.706-.381.4-.733.766-1.055,1.09s-.738.714-1.2,1.15c-3.373,3.174-9.644,9.087-8.7,15.784.919,6.413-2.639,13.252-6.443,17.073,2.575,1.536,6.48,4.019,6.705,5.1.151.706,1.685.723,3.462.746.88.007,1.876.02,2.894.112a2.836,2.836,0,0,1,2.381,1.479l2.909.188a.344.344,0,0,1,.243.124l2.726,3.286,1.878,1.066a.359.359,0,0,1,.131.134l2.7,4.822h8.128a.358.358,0,0,1,.1.015l3.6,1.1a.344.344,0,0,1,.216.2.33.33,0,0,1-.008.29Z" transform="translate(-859.421 -332.751)" fill="#c4c4c4" stroke="#fff" stroke-width="0.15"/>
      </g>
      <g id="Grupo_95" data-name="Grupo 95" transform="translate(194.177 61.418)">
        <g id="Grupo_93" data-name="Grupo 93" transform="translate(17.577 5.573)">
          <path id="Trazado_1922" data-name="Trazado 1922" d="M885.7,320.979c1.266.7.533,1.7-.768,2.3-1.333.6-2.865.166-4.233-.367-.5-.166-1.1-.567-.966-1.068a.977.977,0,0,1,.6-.6,6.674,6.674,0,0,1,5.3-.4Z" transform="translate(-879.365 -320.14)" fill="#c4c4c4" stroke="#fff" stroke-width="0.15"/>
          <path id="Trazado_1923" data-name="Trazado 1923" d="M883.707,324.117a8.364,8.364,0,0,1-2.926-.681c-.711-.235-1.36-.785-1.177-1.479a1.313,1.313,0,0,1,.8-.828,7.112,7.112,0,0,1,5.548-.409.334.334,0,0,1,.2.171l.023.04a1.269,1.269,0,0,1,.741,1.137c-.025.632-.615,1.261-1.625,1.73A3.869,3.869,0,0,1,883.707,324.117Zm-.072-3.09a6.186,6.186,0,0,0-2.931.724c-.191.084-.392.22-.426.372-.064.24.335.528.738.662,1.167.456,2.83.9,3.98.379.716-.33,1.207-.781,1.219-1.12.007-.238-.255-.436-.478-.56a.336.336,0,0,1-.141-.146l0,0A6.351,6.351,0,0,0,883.635,321.027Z" transform="translate(-879.572 -320.341)" fill="#c4c4c4" stroke="#fff" stroke-width="0.15"/>
        </g>
        <g id="Grupo_94" data-name="Grupo 94">
          <path id="Trazado_1924" data-name="Trazado 1924" d="M887.215,323.23c.367.235.833.6.734,1.033-.1.367-.533.533-.9.634a72.706,72.706,0,0,1-14.164,1.933l-.265-8.6A44.68,44.68,0,0,1,887.215,323.23Z" transform="translate(-872.27 -317.886)" fill="#c4c4c4" stroke="#fff" stroke-width="0.15"/>
          <path id="Trazado_1925" data-name="Trazado 1925" d="M873.093,327.383a.342.342,0,0,1-.347-.335l-.268-8.6a.356.356,0,0,1,.119-.272.351.351,0,0,1,.282-.082,44.712,44.712,0,0,1,14.711,5.035c.28.181,1.071.691.9,1.417a1.456,1.456,0,0,1-1.145.89,73.12,73.12,0,0,1-14.243,1.945Zm.094-8.534.243,7.828a72.944,72.944,0,0,0,13.748-1.91c.382-.1.6-.235.644-.389.017-.082-.03-.29-.587-.652A44.058,44.058,0,0,0,873.188,318.85Z" transform="translate(-872.479 -318.092)" fill="#c4c4c4" stroke="#fff" stroke-width="0.15"/>
        </g>
      </g>
      <g id="Grupo_96" data-name="Grupo 96" transform="translate(154.027 148.658)">
        <path id="Trazado_1926" data-name="Trazado 1926" d="M906.965,403.325l1.665,3.065-.4,2.634v5.7l-1.534,1.933v3.33l-.567,2.666,2.1.966L906,425.686l-.966,4.031-2.232,2.768-3.1.667a18.444,18.444,0,0,0-7.166-8.432c-20.559-12.229-28.89-39.989-32.755-43.322-3.9-3.333-3.333-13.9-3.333-17.229a10.091,10.091,0,0,1,.067-1.333l1.866.8,1.665,4.165-.265,4.433,5.83,1.1s1.368-4.165,3.333-5.533c1.933-1.4,5.266-3.633,6.1-3.633s6.93-5.263,6.1-6.363c-.533-.733-.367-2.9-1.133-4.366l3.1.2,2.765,3.333,1.933,1.1,2.8,5h8.331l3.6,1.1-2.233,4.465,3.633,1.1-1.4,1.1s-8.331,1.665-10,3.065-2.765,6.666-2.765,6.666l-3.065,3.9,3.065,5.266.267,4.165H892.8l2.233,1.668,3.9-.568,2.5-1.665-.3,6.663,4.832.3Z" transform="translate(-856.069 -353.091)" fill="#c4c4c4" stroke="#fff" stroke-width="0.15"/>
        <path id="Trazado_1927" data-name="Trazado 1927" d="M899.907,433.7a.345.345,0,0,1-.314-.2,18.118,18.118,0,0,0-7.03-8.276c-14.877-8.851-23.347-25.7-28.409-35.774-1.878-3.739-3.363-6.7-4.4-7.582-3.643-3.117-3.521-12.048-3.464-16.339.007-.444.013-.833.013-1.155a10.852,10.852,0,0,1,.067-1.373.356.356,0,0,1,.174-.26.348.348,0,0,1,.309-.017l1.866.8a.344.344,0,0,1,.186.191l1.665,4.165a.351.351,0,0,1,.025.151l-.248,4.126,5.236.989c.354-.991,1.613-4.2,3.365-5.422.847-.612,5.164-3.695,6.3-3.695.567-.089,5.062-3.762,5.761-5.486.086-.213.069-.31.059-.32a4.658,4.658,0,0,1-.521-1.91,8.078,8.078,0,0,0-.644-2.505.357.357,0,0,1,.017-.352.334.334,0,0,1,.315-.156l3.1.2a.344.344,0,0,1,.243.124l2.726,3.286,1.878,1.066a.359.359,0,0,1,.131.134l2.7,4.822h8.128a.359.359,0,0,1,.1.015l3.6,1.1a.344.344,0,0,1,.216.2.33.33,0,0,1-.008.29l-2.047,4.1,3.236.979a.351.351,0,0,1,.243.268.356.356,0,0,1-.126.337l-1.4,1.1a.337.337,0,0,1-.149.067c-2.292.459-8.531,1.891-9.842,2.991-1.553,1.308-2.636,6.42-2.649,6.472a.317.317,0,0,1-.067.144l-2.919,3.714,2.946,5.06a.323.323,0,0,1,.047.151l.246,3.843h2.441a.353.353,0,0,1,.208.067l2.116,1.581,3.682-.535,2.431-1.623a.34.34,0,0,1,.364-.015.349.349,0,0,1,.176.32l-.285,6.324,4.493.28a.346.346,0,0,1,.307.238l1,3.033,1.64,3.008a.334.334,0,0,1,.037.218l-.4,2.632,0,5.645a.35.35,0,0,1-.074.216l-1.46,1.839V420.2l-.518,2.468,1.849.85a.342.342,0,0,1,.2.26.348.348,0,0,1-.107.31l-2.156,1.992-.942,3.932a.35.35,0,0,1-.067.136l-2.232,2.765a.342.342,0,0,1-.2.121l-3.1.666A.332.332,0,0,1,899.907,433.7Zm-42.888-70.152c-.02.307-.02.577-.02.825,0,.322,0,.716-.01,1.162-.057,4.188-.176,12.9,3.219,15.8,1.14.981,2.577,3.838,4.567,7.8,5.025,10,13.44,26.742,28.144,35.489a18.7,18.7,0,0,1,7.186,8.331l2.708-.585,2.106-2.607.947-3.957a.35.35,0,0,1,.1-.173l1.851-1.715-1.628-.746a.35.35,0,0,1-.193-.389l.565-2.666-.007-3.259a.335.335,0,0,1,.074-.216l1.459-1.839v-5.578l.387-2.567-1.611-2.964-.952-2.867-4.6-.287a.347.347,0,0,1-.325-.362l.27-5.979-1.928,1.283a.313.313,0,0,1-.144.057l-3.9.568a.381.381,0,0,1-.257-.064l-2.141-1.6h-2.649a.347.347,0,0,1-.347-.322l-.263-4.086-3.023-5.194a.344.344,0,0,1,.027-.389l3.015-3.836c.151-.7,1.224-5.4,2.865-6.779s9.151-2.936,10.07-3.122l.813-.639-2.993-.9a.35.35,0,0,1-.218-.2.336.336,0,0,1,.008-.292l2.049-4.1-3.157-.966h-8.279a.343.343,0,0,1-.3-.176l-2.753-4.914-1.851-1.051a.422.422,0,0,1-.094-.082l-2.671-3.216-2.381-.156a11.175,11.175,0,0,1,.476,2.183,4.583,4.583,0,0,0,.391,1.6,1.093,1.093,0,0,1-.059,1.179c-.924,1.868-5.375,5.734-6.318,5.734-.55,0-3.083,1.534-5.9,3.568-1.851,1.288-3.194,5.318-3.207,5.36a.339.339,0,0,1-.394.233l-5.831-1.1a.35.35,0,0,1-.283-.364l.263-4.351-1.586-3.962Z" transform="translate(-856.276 -353.299)" fill="#c4c4c4" stroke="#fff" stroke-width="0.15"/>
      </g>
      <g id="Grupo_101" data-name="Grupo 101" transform="translate(178.892 224.937)">
        <g id="Grupo_97" data-name="Grupo 97" transform="translate(16.952)">
          <path id="Trazado_1928" data-name="Trazado 1928" d="M890.655,407.55l-.568,5.565-4.433,2.5-.565,3.333.265,7.2-3.6,6.666-1.933.3.533,10-3.333,2.765-3.732-.434c4.465-19.962,7.7-44.122,1.467-57.783l3.1-.666,2.233-2.768,2.233,1.668,1.665,5.266,2.2,1.132-1.668,2.765,1.668,6.931,1.132,5.833Z" transform="translate(-872.945 -383.875)" fill="#c4c4c4" stroke="#fff" stroke-width="0.15"/>
          <path id="Trazado_1929" data-name="Trazado 1929" d="M877.231,446.428l-.04,0-3.732-.434a.347.347,0,0,1-.243-.144.356.356,0,0,1-.057-.277c5.974-26.7,6.49-46.6,1.489-57.565a.348.348,0,0,1,.008-.3.354.354,0,0,1,.238-.186l2.979-.642,2.156-2.666a.342.342,0,0,1,.478-.062l2.23,1.665a.356.356,0,0,1,.124.176l1.623,5.127,2.072,1.065a.352.352,0,0,1,.139.488l-1.593,2.644,1.633,6.792,1.078,5.543,3.023-.243a.374.374,0,0,1,.275.1.35.35,0,0,1,.1.277l-.568,5.565a.351.351,0,0,1-.174.27l-4.287,2.416-.54,3.169.273,7.126a.346.346,0,0,1-.042.179l-3.6,6.663a.355.355,0,0,1-.253.181l-1.62.25.515,9.684a.351.351,0,0,1-.124.285l-3.333,2.768A.346.346,0,0,1,877.231,446.428Zm-3.308-1.08,3.2.372,3.085-2.56-.525-9.825a.348.348,0,0,1,.295-.362l1.759-.272,3.474-6.428-.262-7.1.57-3.4a.356.356,0,0,1,.174-.245l4.274-2.409.505-4.976-2.916.235a.358.358,0,0,1-.367-.278l-1.135-5.833-1.663-6.918a.346.346,0,0,1,.04-.26l1.475-2.446-1.869-.964a.359.359,0,0,1-.173-.206l-1.633-5.157-1.873-1.4-2.022,2.505a.342.342,0,0,1-.2.121l-2.681.577C880.38,399.377,879.865,418.626,873.923,445.348Z" transform="translate(-873.152 -384.083)" fill="#c4c4c4" stroke="#fff" stroke-width="0.15"/>
        </g>
        <g id="Grupo_100" data-name="Grupo 100" transform="translate(0 61.217)">
          <g id="Grupo_98" data-name="Grupo 98" transform="translate(0 108.303)">
            <path id="Trazado_1930" data-name="Trazado 1930" d="M895.2,487.227a29.238,29.238,0,0,1,9.664,3.7c-11.631.2-37.223-7.83-38.257-27.857-.166-2.934-.2-6.467-.1-10.432l8.063.1c-.1,2.3-.032,4.366.367,4.5a15.323,15.323,0,0,0,3.033.268l1.133,6.963a3.946,3.946,0,0,0,3.6,2.768c2.765,0,11.663,1.933,11.663,1.933l.032.632Z" transform="translate(-866.104 -452.288)" fill="#c4c4c4" stroke="#fff" stroke-width="0.15"/>
            <path id="Trazado_1931" data-name="Trazado 1931" d="M904.64,491.483c-12.4,0-37.156-8.512-38.172-28.191-.166-2.944-.2-6.462-.1-10.459a.35.35,0,0,1,.349-.337h0l8.066.1a.347.347,0,0,1,.342.359c-.121,2.825.06,3.94.183,4.173a15.384,15.384,0,0,0,2.869.233.346.346,0,0,1,.342.29l1.135,6.965a3.558,3.558,0,0,0,3.256,2.475c2.773,0,11.371,1.861,11.735,1.938a.343.343,0,0,1,.273.322l.035.634.786,17.142a30.228,30.228,0,0,1,9.5,3.7.352.352,0,0,1,.166.389.347.347,0,0,1-.332.26Zm-37.585-38.291c-.092,3.838-.054,7.218.107,10.06.967,18.736,24.081,27.106,36.527,27.52a27.12,27.12,0,0,0-8.328-3,.343.343,0,0,1-.3-.327l-.818-17.794c-1.484-.317-8.9-1.871-11.331-1.871a4.326,4.326,0,0,1-3.933-3.011l-1.1-6.723a13.144,13.144,0,0,1-2.842-.278c-.278-.094-.778-.26-.625-4.487Z" transform="translate(-866.311 -452.495)" fill="#c4c4c4" stroke="#fff" stroke-width="0.15"/>
          </g>
          <g id="Grupo_99" data-name="Grupo 99" transform="translate(0.055)">
            <path id="Trazado_1932" data-name="Trazado 1932" d="M887.4,417.125l2.2,3.9s-.533,7.5-2.5,10.828c-1.933,3.333-4.165,5-3.866,8.9.268,3.866,1.933,8.864.268,10.264S881,469.61,881,469.61l-2.765,1.4,1.667,4.733,2.2,1.665-1.1,4.165,1.933,1.668-1.365,2.5.832,2.768-1.4,6.931a46.5,46.5,0,0,1-2.233,6.13c-1.665,3.866-1.933,8.866-3.03,9.7-.634.466-1.033,3.4-1.2,6.063l-8.063-.1c.4-24.492,4.9-65.415,10.63-84.542,1.8-6,4.166-14.4,6.264-23.761l3.732.434Z" transform="translate(-866.125 -408.58)" fill="#c4c4c4" stroke="#fff" stroke-width="0.15"/>
            <path id="Trazado_1933" data-name="Trazado 1933" d="M874.745,517.886h0l-8.066-.1a.352.352,0,0,1-.245-.1.358.358,0,0,1-.1-.248c.4-24.573,4.874-65.372,10.648-84.636,2.461-8.209,4.567-16.2,6.259-23.739a.335.335,0,0,1,.377-.268l3.734.434a.346.346,0,0,1,.3.332l.3,7.679,2.158,3.826a.339.339,0,0,1,.045.2c-.022.31-.563,7.617-2.547,10.98-.516.89-1.041,1.645-1.551,2.381-1.385,1.99-2.478,3.566-2.268,6.314.082,1.174.3,2.465.5,3.714.488,2.954.949,5.744-.357,6.844-1.13.947-2.057,11.755-2.376,18.344a.346.346,0,0,1-.188.292l-2.5,1.264,1.531,4.344,2.116,1.6a.352.352,0,0,1,.126.367l-1.046,3.955,1.769,1.526a.345.345,0,0,1,.077.429l-1.3,2.374.79,2.627a.346.346,0,0,1,.01.169l-1.4,6.931a46.709,46.709,0,0,1-2.255,6.2,32.641,32.641,0,0,0-1.668,5.739c-.468,2.086-.8,3.591-1.474,4.1-.364.27-.845,2.349-1.063,5.808A.348.348,0,0,1,874.745,517.886Zm-7.711-.79,7.387.092c.146-2.119.5-5.394,1.321-5.994.461-.349.825-1.972,1.212-3.692a33.684,33.684,0,0,1,1.707-5.863,46.711,46.711,0,0,0,2.213-6.081l1.38-6.829-.808-2.681a.341.341,0,0,1,.027-.265l1.231-2.252-1.72-1.484a.348.348,0,0,1-.109-.352l1.041-3.942-2.014-1.526a.338.338,0,0,1-.119-.161l-1.665-4.73a.346.346,0,0,1,.171-.426l2.584-1.308c.129-2.518.934-17.229,2.614-18.641,1-.845.552-3.566.119-6.2-.211-1.264-.426-2.57-.508-3.774-.231-2.993.983-4.74,2.389-6.765.5-.719,1.021-1.467,1.521-2.329,1.779-3.02,2.371-9.669,2.446-10.578l-2.149-3.809a.373.373,0,0,1-.045-.156l-.287-7.466-3.127-.364c-1.682,7.469-3.769,15.363-6.2,23.478C871.916,452.115,867.473,492.535,867.034,517.1Z" transform="translate(-866.333 -408.788)" fill="#c4c4c4" stroke="#fff" stroke-width="0.15"/>
          </g>
        </g>
      </g>
      <g id="Grupo_102" data-name="Grupo 102" transform="translate(154.123 140.961)">
        <path id="Trazado_1934" data-name="Trazado 1934" d="M879.948,358.032c.766,1.467.6,3.633,1.133,4.366.832,1.1-5.266,6.363-6.1,6.363s-4.165,2.233-6.1,3.633c-1.965,1.368-3.333,5.533-3.333,5.533l-5.83-1.1.265-4.433-1.665-4.165-1.866-.8c.2-4.2,1.531-12.828,5.464-15.328a14.508,14.508,0,0,0,2.233-1.767c2.434,1.435,6.733,4.133,6.933,5.1.3,1.4,3.333.833,6.663,1.132A2.5,2.5,0,0,1,879.948,358.032Z" transform="translate(-856.108 -349.986)" fill="#c4c4c4" stroke="#fff" stroke-width="0.15"/>
        <path id="Trazado_1935" data-name="Trazado 1935" d="M865.758,378.481a.292.292,0,0,1-.064,0l-5.831-1.1a.35.35,0,0,1-.283-.364l.263-4.351-1.586-3.962-1.732-.743a.341.341,0,0,1-.211-.335c.221-4.609,1.653-13.083,5.625-15.606a14.519,14.519,0,0,0,2.181-1.725.351.351,0,0,1,.416-.05c2.547,1.5,6.859,4.193,7.094,5.327.151.706,1.685.724,3.462.746.88.007,1.876.02,2.894.112a2.851,2.851,0,0,1,2.478,1.658,8.649,8.649,0,0,1,.711,2.721,4.58,4.58,0,0,0,.391,1.6,1.093,1.093,0,0,1-.059,1.179c-.924,1.868-5.375,5.734-6.319,5.734-.55,0-3.083,1.534-5.9,3.568-1.851,1.289-3.194,5.318-3.206,5.36A.346.346,0,0,1,865.758,378.481Zm-5.466-1.732,5.236.989c.354-.991,1.613-4.2,3.365-5.422.847-.612,5.164-3.694,6.3-3.694.567-.089,5.062-3.762,5.761-5.486.087-.213.069-.31.059-.32a4.66,4.66,0,0,1-.52-1.91,8.069,8.069,0,0,0-.644-2.505,2.146,2.146,0,0,0-1.92-1.281c-.991-.089-1.975-.1-2.84-.112-2.161-.025-3.868-.045-4.133-1.3-.1-.476-2.19-2.158-6.544-4.74a15.3,15.3,0,0,1-2.094,1.631c-3.672,2.332-5.055,10.566-5.3,14.81l1.645.7a.343.343,0,0,1,.186.191l1.665,4.165a.357.357,0,0,1,.025.151Z" transform="translate(-856.315 -350.193)" fill="#c4c4c4" stroke="#fff" stroke-width="0.15"/>
      </g>
      <g id="Grupo_103" data-name="Grupo 103" transform="translate(146.226 107.37)">
        <path id="Trazado_1936" data-name="Trazado 1936" d="M879.259,341.443l-3.933,6.666c-2.1-3.333-.431-7.265-4.165-7.466a7.093,7.093,0,0,0-5.63,1.868s.833,7.7-4.6,3.531a59.445,59.445,0,0,0-7.664-4.931l1.63-4.334c3.9,1.967,7.367,1.868,12.7.535C873.461,335.845,879.259,341.443,879.259,341.443Z" transform="translate(-852.921 -336.43)" fill="#c4c4c4" stroke="#fff" stroke-width="0.15"/>
        <path id="Trazado_1937" data-name="Trazado 1937" d="M875.536,348.662a.351.351,0,0,1-.3-.163,10.655,10.655,0,0,1-1.331-4.039c-.337-1.9-.56-3.154-2.56-3.263-.193-.01-.379-.015-.56-.015a6.854,6.854,0,0,0-4.693,1.668c.054.679.173,3.2-.875,4.364-.9,1.009-2.349.808-4.3-.689a58.713,58.713,0,0,0-7.619-4.9.349.349,0,0,1-.156-.429l1.633-4.331a.346.346,0,0,1,.2-.2.334.334,0,0,1,.28.012,12.989,12.989,0,0,0,6.061,1.474h0a26.223,26.223,0,0,0,6.4-.969,8.742,8.742,0,0,1,2.109-.253c5.186,0,9.691,4.292,9.882,4.475a.349.349,0,0,1,.057.426l-3.932,6.663a.341.341,0,0,1-.292.171Zm-4.745-8.177c.193,0,.394,0,.6.02,2.55.136,2.867,1.933,3.2,3.836a11.426,11.426,0,0,0,.946,3.281l3.484-5.9c-.924-.82-4.887-4.1-9.2-4.1a8.112,8.112,0,0,0-1.94.235,26.926,26.926,0,0,1-6.564.986h0a13.6,13.6,0,0,1-6.026-1.375l-1.393,3.692a59.311,59.311,0,0,1,7.446,4.817c1.576,1.209,2.7,1.5,3.358.773.818-.909.771-3.192.684-3.992a.355.355,0,0,1,.087-.268A7.24,7.24,0,0,1,870.791,340.485Z" transform="translate(-853.128 -336.637)" fill="#c4c4c4" stroke="#fff" stroke-width="0.15"/>
      </g>
      <g id="Grupo_107" data-name="Grupo 107" transform="translate(140.299 44.756)">
        <g id="Grupo_104" data-name="Grupo 104" transform="translate(43.275 15.693)">
          <path id="Trazado_1938" data-name="Trazado 1938" d="M873.679,318.309a40.171,40.171,0,0,1,5.265.5l.265,8.6a68.654,68.654,0,0,1-10.8-.335c-.4-1.165.9-2.265,2.134-2.431s2.5.2,3.731-.067c1.2-.268,2.332-1.668,1.665-2.7a6.823,6.823,0,0,1-2.963-.367,2.4,2.4,0,0,1-1.5-2.332c.134-1,1.435-1.732,2.2-1.1Z" transform="translate(-867.993 -317.494)" fill="#c4c4c4" stroke="#fff" stroke-width="0.15"/>
          <path id="Trazado_1939" data-name="Trazado 1939" d="M876.11,328.039a67.985,67.985,0,0,1-7.526-.414.344.344,0,0,1-.29-.23,1.734,1.734,0,0,1,.2-1.517,3.219,3.219,0,0,1,2.218-1.375,8.842,8.842,0,0,1,1.774-.005,7.76,7.76,0,0,0,1.933-.054,2.249,2.249,0,0,0,1.492-1.239,1.032,1.032,0,0,0,.04-.768c-.159,0-.317.007-.478.007a6.108,6.108,0,0,1-2.418-.409,2.768,2.768,0,0,1-1.707-2.7,1.968,1.968,0,0,1,1.873-1.635,1.386,1.386,0,0,1,.892.315.355.355,0,0,1,.109.161,41.326,41.326,0,0,1,4.988.5.349.349,0,0,1,.3.332l.265,8.6a.347.347,0,0,1-.33.357C878.322,328.012,877.2,328.039,876.11,328.039Zm-7.209-1.075a69.336,69.336,0,0,0,10.16.32l-.248-7.966a38.915,38.915,0,0,0-4.934-.454.345.345,0,0,1-.34-.347v-.047a1.212,1.212,0,0,0-1.509.961,2.083,2.083,0,0,0,1.3,1.97,5.52,5.52,0,0,0,2.141.349c.226,0,.451-.007.674-.012a.335.335,0,0,1,.3.159,1.662,1.662,0,0,1,.107,1.571,2.953,2.953,0,0,1-1.987,1.655,8.363,8.363,0,0,1-2.126.067,8.211,8.211,0,0,0-1.638,0,2.523,2.523,0,0,0-1.72,1.051A1.1,1.1,0,0,0,868.9,326.964Z" transform="translate(-868.2 -317.701)" fill="#c4c4c4" stroke="#fff" stroke-width="0.15"/>
        </g>
        <g id="Grupo_105" data-name="Grupo 105">
          <path id="Trazado_1940" data-name="Trazado 1940" d="M894.359,326.8a1.675,1.675,0,0,1-.7,2.133,4.605,4.605,0,0,1-2.4.6,43.191,43.191,0,0,1-8.8-.468,4.392,4.392,0,0,1-2.567-1.033c-.832-.833-.9-2.2-1.566-3.231-1.432-2.166-4.631-1.732-7.2-2.166-2.666-.434-4.931-2.067-7.3-3.333s-5.164-2.233-7.7-1.3c-1.767.634-4.133,1.933-5.067.335-.667-1.167.5-2.6,1.767-3,1.3-.4,2.7-.235,3.967-.7,2.032-.766,3.464-3.1,5.664-3.132,2.366-.032,3.9,2.7,6.2,3.365,1.4.4,2.867,0,4.3-.067,3.766-.131,7.2,2.1,10.362,4.232,3.4,2.334,6.8,4.666,10.232,7A2.511,2.511,0,0,1,894.359,326.8Z" transform="translate(-850.529 -311.161)" fill="#c4c4c4" stroke="#fff" stroke-width="0.15"/>
          <path id="Trazado_1941" data-name="Trazado 1941" d="M889.325,330.141a42.156,42.156,0,0,1-6.71-.523,4.7,4.7,0,0,1-2.758-1.13,4.821,4.821,0,0,1-1.013-1.915,6.307,6.307,0,0,0-.6-1.37c-.976-1.479-2.892-1.633-4.919-1.794-.681-.055-1.385-.109-2.044-.223a17.462,17.462,0,0,1-5.8-2.466c-.533-.307-1.063-.615-1.6-.9-3-1.606-5.414-2.017-7.414-1.281-.273.1-.557.211-.847.327a8.6,8.6,0,0,1-2.909.8,1.862,1.862,0,0,1-1.821-2.594,3.37,3.37,0,0,1,2.054-1.851,9.655,9.655,0,0,1,1.95-.327,8,8,0,0,0,2-.367,8.837,8.837,0,0,0,2.21-1.425,4.646,4.646,0,0,1,7.273.05,8.058,8.058,0,0,0,2.6,1.6,8.153,8.153,0,0,0,2.9.037c.431-.05.862-.1,1.288-.119.114-.005.226-.005.335-.005,3.858,0,7.4,2.384,10.241,4.3,3.4,2.337,6.8,4.666,10.231,7a2.789,2.789,0,0,1,.9.875,2,2,0,0,1-.805,2.6,4.88,4.88,0,0,1-2.577.659Q890.407,330.139,889.325,330.141ZM858.5,317.493a12.269,12.269,0,0,1,5.7,1.712c.545.29,1.083.6,1.62.912a17.026,17.026,0,0,0,5.57,2.386c.629.107,1.318.159,1.985.211,2.1.169,4.279.34,5.447,2.106a6.921,6.921,0,0,1,.674,1.524,4.256,4.256,0,0,0,.847,1.655,4.137,4.137,0,0,0,2.371.934,43.143,43.143,0,0,0,8.732.463,4.281,4.281,0,0,0,2.223-.543,1.347,1.347,0,0,0,.595-1.66,2.143,2.143,0,0,0-.694-.662c-3.437-2.337-6.837-4.666-10.236-7-2.763-1.861-6.2-4.178-9.85-4.178-.1,0-.2,0-.3.005-.409.02-.825.067-1.241.114a8.623,8.623,0,0,1-3.164-.059,8.518,8.518,0,0,1-2.84-1.725,4,4,0,0,0-6.408-.047,9.3,9.3,0,0,1-2.4,1.529,8.6,8.6,0,0,1-2.176.406,9.3,9.3,0,0,0-1.811.3,2.693,2.693,0,0,0-1.613,1.442,1.171,1.171,0,0,0,1.175,1.648,8.2,8.2,0,0,0,2.654-.748c.3-.119.587-.233.865-.335A6.572,6.572,0,0,1,858.5,317.493Z" transform="translate(-850.736 -311.368)" fill="#c4c4c4" stroke="#fff" stroke-width="0.15"/>
        </g>
        <g id="Grupo_106" data-name="Grupo 106" transform="translate(25.62 22.247)">
          <path id="Trazado_1942" data-name="Trazado 1942" d="M868.679,324.366a7.207,7.207,0,0,1-7.464-1.7l.065-.634a4.161,4.161,0,0,1,7.4,2.334Z" transform="translate(-860.867 -320.139)" fill="#c4c4c4" stroke="#fff" stroke-width="0.15"/>
          <path id="Trazado_1943" data-name="Trazado 1943" d="M866.546,325.329a7.555,7.555,0,0,1-5.37-2.213.339.339,0,0,1-.1-.28l.067-.634a.361.361,0,0,1,.074-.181,4.573,4.573,0,0,1,3.566-1.675,4.434,4.434,0,0,1,1.308.2,4.631,4.631,0,0,1,3.142,4.009.352.352,0,0,1-.228.347A7.106,7.106,0,0,1,866.546,325.329Zm-4.76-2.585a6.876,6.876,0,0,0,4.76,1.891,6.412,6.412,0,0,0,1.967-.3,3.923,3.923,0,0,0-2.629-3.127,3.99,3.99,0,0,0-4.061,1.172Z" transform="translate(-861.075 -320.346)" fill="#c4c4c4" stroke="#fff" stroke-width="0.15"/>
        </g>
      </g>
      <g id="Grupo_108" data-name="Grupo 108" transform="translate(132.463 100.541)">
        <path id="Trazado_1944" data-name="Trazado 1944" d="M863.108,340.85l-1.63,4.334c-2.267-1.234-4.2-2.166-5.667-3-2.9-1.665-7.065-1.432-7.065-3.732a9.418,9.418,0,0,0-1.033-3.831l6.034-.6,2.5,1.665,2.567-1.266c.131,2.7,1,4.6,3.266,5.9C862.409,340.518,862.776,340.684,863.108,340.85Z" transform="translate(-847.367 -333.674)" fill="#c4c4c4" stroke="#fff" stroke-width="0.15"/>
        <path id="Trazado_1945" data-name="Trazado 1945" d="M861.684,345.735a.359.359,0,0,1-.168-.04c-1.068-.582-2.064-1.1-2.971-1.566-1.031-.533-1.92-.994-2.7-1.435a15.162,15.162,0,0,0-3.464-1.286c-1.943-.543-3.776-1.058-3.776-2.751a9.11,9.11,0,0,0-1-3.68.343.343,0,0,1,.007-.322.351.351,0,0,1,.27-.178l6.031-.6a.414.414,0,0,1,.225.059l2.334,1.551,2.386-1.177a.367.367,0,0,1,.33.012.349.349,0,0,1,.169.285c.136,2.768,1.063,4.448,3.095,5.612.25.151.513.278.766.4l.248.119a.35.35,0,0,1,.168.436l-1.633,4.331a.343.343,0,0,1-.2.2A.324.324,0,0,1,861.684,345.735ZM848.44,335.122a9.4,9.4,0,0,1,.862,3.536c0,1.108,1.241,1.514,3.266,2.084a15.726,15.726,0,0,1,3.623,1.348c.766.436,1.65.892,2.674,1.422.81.419,1.692.875,2.634,1.383l1.383-3.665c-.26-.126-.528-.258-.778-.409a6.593,6.593,0,0,1-3.4-5.655l-2.1,1.036a.338.338,0,0,1-.344-.022l-2.4-1.6Z" transform="translate(-847.573 -333.881)" fill="#c4c4c4" stroke="#fff" stroke-width="0.15"/>
      </g>
      <g id="Grupo_109" data-name="Grupo 109" transform="translate(128.263 83.678)">
        <path id="Trazado_1946" data-name="Trazado 1946" d="M862.215,327.216a17.511,17.511,0,0,1,.067,7.131,59.756,59.756,0,0,0-.966,10.13l-2.567,1.266-2.5-1.665-6.034.6a6.815,6.815,0,0,0-2.7-3.234,3.135,3.135,0,0,1-1.5-2.5l1.066-6,2.233-.533,2.2-.568,3.065-3.9,2.5.833Z" transform="translate(-845.671 -326.868)" fill="#c4c4c4" stroke="#fff" stroke-width="0.15"/>
        <path id="Trazado_1947" data-name="Trazado 1947" d="M858.955,346.3a.331.331,0,0,1-.191-.057l-2.4-1.6-5.907.587a.381.381,0,0,1-.352-.2,6.4,6.4,0,0,0-2.54-3.068,3.467,3.467,0,0,1-1.685-2.746.36.36,0,0,1,0-.126l1.065-6a.349.349,0,0,1,.261-.278l4.314-1.068,2.993-3.806a.337.337,0,0,1,.382-.114l2.4.8,5.025-1.536a.357.357,0,0,1,.267.03.34.34,0,0,1,.169.206,17.863,17.863,0,0,1,.074,7.278l-.119.847a53.745,53.745,0,0,0-.845,9.218.342.342,0,0,1-.191.33l-2.567,1.264A.331.331,0,0,1,858.955,346.3Zm-2.5-2.356a.333.333,0,0,1,.191.059l2.334,1.551,2.183-1.075a56.2,56.2,0,0,1,.86-9.121l.119-.847a18.553,18.553,0,0,0,.035-6.646l-4.787,1.462a.323.323,0,0,1-.211,0l-2.27-.756L852,332.27a.35.35,0,0,1-.186.121l-4.217,1.046-1.016,5.712a2.733,2.733,0,0,0,1.3,2.193,6.9,6.9,0,0,1,2.75,3.172l5.791-.575Z" transform="translate(-845.879 -327.076)" fill="#c4c4c4" stroke="#fff" stroke-width="0.15"/>
      </g>
      <g id="Grupo_110" data-name="Grupo 110" transform="translate(118.234 78.503)">
        <path id="Trazado_1948" data-name="Trazado 1948" d="M868.2,330.3l-5.132,1.566-2.5-.833-3.065,3.9-2.2.567-2.233.533-1.066,6c-.3-1.2-.533-2.468-1.633-3.135a6.37,6.37,0,0,0-1.6-.533l-.131-2.6-3.333-1.1L841.971,333l1.933-4.165-.1-1.9,3.933-1.232a2.1,2.1,0,0,0,1.566.5c3.132,0,11.262-2.1,14.394-.434C865.665,326.8,867.429,327.669,868.2,330.3Z" transform="translate(-841.624 -324.78)" fill="#c4c4c4" stroke="#fff" stroke-width="0.15"/>
        <path id="Trazado_1949" data-name="Trazado 1949" d="M852.208,342.585a.347.347,0,0,1-.337-.263l-.067-.273a3.832,3.832,0,0,0-1.41-2.644,6.078,6.078,0,0,0-1.5-.5.348.348,0,0,1-.268-.317l-.119-2.361-3.107-1.026-3.38-1.685a.348.348,0,0,1-.159-.456l1.9-4.089-.094-1.814a.35.35,0,0,1,.243-.352l3.93-1.229a.344.344,0,0,1,.349.082,1.811,1.811,0,0,0,1.321.4,34.641,34.641,0,0,0,4.064-.439,51.038,51.038,0,0,1,6.681-.639,8.306,8.306,0,0,1,3.816.684l.144.077c1.921,1.006,3.737,1.958,4.527,4.663a.352.352,0,0,1-.233.431l-5.131,1.566a.324.324,0,0,1-.211,0l-2.27-.756-2.914,3.707a.35.35,0,0,1-.186.121l-4.218,1.046-1.026,5.776a.347.347,0,0,1-.332.285Zm-2.9-4.289a5.556,5.556,0,0,1,1.444.513,3.3,3.3,0,0,1,1.383,1.851l.8-4.48a.349.349,0,0,1,.26-.278l4.314-1.068,2.993-3.806a.337.337,0,0,1,.382-.114l2.4.8,4.688-1.432c-.751-2.176-2.3-2.986-4.076-3.915l-.146-.079a7.66,7.66,0,0,0-3.491-.6,50.867,50.867,0,0,0-6.587.632,34.928,34.928,0,0,1-4.158.441,2.634,2.634,0,0,1-1.648-.453l-3.489,1.093.087,1.63a.34.34,0,0,1-.032.164l-1.791,3.861,3.03,1.514,3.286,1.08a.346.346,0,0,1,.238.312Z" transform="translate(-841.831 -324.987)" fill="#c4c4c4" stroke="#fff" stroke-width="0.15"/>
      </g>
      <g id="Grupo_111" data-name="Grupo 111" transform="translate(0)">
        <path id="Trazado_1950" data-name="Trazado 1950" d="M912.755,348.231c4.366,0,13.331-2.5,11.864,1.234-1.167,2.964-4.232,8.5-5.7,12.828l-2.832-.533-3.6,2.765h-6.133l-1.932,2.8,5.565,5-1.965,1.933-2.765.833h-3.9l-.565,3.866c-3.9-3.5-7.865-8.6-11.564-7.4-4.6,1.467-33.125-1.668-41.255-11.463s-1.033-9.8-4.165-14.6c-3.1-4.765-28.526-36.423-32.057-42.454-3.566-6.066-9.6-5.231-4.8,3.1s17.3,28.957,18.961,30.625,3.333,7.929-3.132,1.665-7.3-13.963-10.831-14.362c-3.531-.434-9.562-5.233-9.164-6.465s4.366-1.467,3.732-2.7c-.568-1.167-7.83-15.031-12.263-20.294l9.632-1.167,13.9,6.1,14.729,1.4-.567-2.765,8.066.265,2.2,2.765s3.633,2.5,4.733,4.465c1.1,1.933,4.733,8.031,6.666,6.666a16.049,16.049,0,0,0,3.6-4.465h3.9l11.663,17.794,7.065,1.5a1.458,1.458,0,0,1-.2.865c-1.033,1.668-3.132,12.9-1.668,16.862,1.467,3.933,3.766,13.13,7.5,15.2,3.766,2.064,12.5,3.531,16.03,1.266,3.566-2.3,7.731-4.4,7.731-7.533C909.224,350.732,908.391,348.231,912.755,348.231Z" transform="translate(-793.909 -293.098)" fill="#c4c4c4" stroke="#fff" stroke-width="0.15"/>
        <path id="Trazado_1951" data-name="Trazado 1951" d="M901,379.51a.352.352,0,0,1-.233-.087c-.8-.714-1.606-1.507-2.386-2.27-2.627-2.567-5.34-5.219-7.808-5.219a3.3,3.3,0,0,0-1.031.161,14.889,14.889,0,0,1-3.774.359c-9.441,0-30.942-3.6-37.855-11.931-5.067-6.106-4.326-8.606-3.727-10.613a3.979,3.979,0,0,0-.461-4.014c-1.294-1.987-6.448-8.623-12.417-16.307-8.244-10.613-17.588-22.643-19.652-26.164-1.534-2.607-3.427-3.774-4.624-3.774a1.144,1.144,0,0,0-1.068.567c-.607,1.051-.05,3.278,1.494,5.959,4.943,8.581,17.316,28.959,18.907,30.553.9.9,1.96,3.281,1.5,4.391a.923.923,0,0,1-.9.592c-.877,0-2.255-.924-4.215-2.822a34.874,34.874,0,0,1-6.524-9.359c-1.452-2.746-2.5-4.725-4.106-4.911-3.055-.372-7.954-3.908-9.178-5.828a1.314,1.314,0,0,1-.275-1.085c.235-.729,1.254-1.113,2.238-1.484.6-.228,1.432-.54,1.539-.813a.154.154,0,0,0-.025-.136c-.642-1.323-7.875-15.068-12.219-20.23a.347.347,0,0,1,.225-.568l9.629-1.167a.321.321,0,0,1,.181.025l13.844,6.078,14.208,1.35-.473-2.309a.347.347,0,0,1,.352-.416l8.063.268a.344.344,0,0,1,.26.131l2.168,2.726c.436.3,3.721,2.632,4.795,4.552,2.384,4.183,4.529,6.683,5.741,6.683a.7.7,0,0,0,.419-.134,15.721,15.721,0,0,0,3.5-4.346.346.346,0,0,1,.3-.181h3.9a.35.35,0,0,1,.292.159l11.584,17.675,6.923,1.469a.347.347,0,0,1,.278.337,1.821,1.821,0,0,1-.263,1.07c-.939,1.511-3.09,12.58-1.625,16.54.283.758.6,1.712.946,2.773,1.393,4.237,3.5,10.635,6.393,12.238a24.854,24.854,0,0,0,10.548,2.366h0a9.8,9.8,0,0,0,5.124-1.09c.486-.312.984-.622,1.482-.932,3.129-1.95,6.088-3.794,6.088-6.306,0-.441-.017-.87-.034-1.281-.06-1.524-.112-2.842.728-3.717a4.239,4.239,0,0,1,3.187-.947,39.5,39.5,0,0,0,4.391-.4,42.468,42.468,0,0,1,4.81-.421c1.591,0,2.525.283,2.941.892a1.7,1.7,0,0,1,.042,1.633c-.463,1.182-1.2,2.718-2.059,4.5a79.912,79.912,0,0,0-3.633,8.316.338.338,0,0,1-.394.23l-2.679-.505-3.476,2.671a.339.339,0,0,1-.211.072h-5.95l-1.655,2.4,5.338,4.795a.348.348,0,0,1,.01.506l-1.965,1.93a.356.356,0,0,1-.144.087l-2.765.833a.344.344,0,0,1-.1.015h-3.6l-.523,3.571a.341.341,0,0,1-.228.273A.313.313,0,0,1,901,379.51Zm-10.427-8.271c2.75,0,5.565,2.755,8.294,5.419.617.6,1.254,1.224,1.885,1.809l.471-3.221a.344.344,0,0,1,.342-.295h3.848l2.634-.793,1.643-1.613-5.29-4.753a.346.346,0,0,1-.055-.456l1.933-2.8a.348.348,0,0,1,.287-.149h6.011l3.506-2.7a.324.324,0,0,1,.275-.067l2.537.478a84.179,84.179,0,0,1,3.566-8.11c.815-1.69,1.586-3.293,2.042-4.45a1.068,1.068,0,0,0,.027-.986c-.265-.394-1.063-.592-2.367-.592a42.131,42.131,0,0,0-4.725.421,39.837,39.837,0,0,1-4.475.4,3.694,3.694,0,0,0-2.686.733c-.637.662-.59,1.841-.535,3.209.017.419.035.857.035,1.308,0,2.9-3.261,4.931-6.415,6.893-.5.31-.991.617-1.474.929a10.447,10.447,0,0,1-5.5,1.2h0a25.633,25.633,0,0,1-10.883-2.451c-3.135-1.737-5.206-8.033-6.718-12.63-.347-1.051-.659-2-.939-2.748-1.487-4.024.535-15.294,1.7-17.167a.813.813,0,0,0,.134-.406L872.9,326.22a.347.347,0,0,1-.221-.151l-11.56-17.638h-3.509a15.642,15.642,0,0,1-3.6,4.4,1.4,1.4,0,0,1-.825.263c-1.935,0-4.517-3.826-6.346-7.037-1.048-1.873-4.592-4.324-4.626-4.349a.4.4,0,0,1-.074-.069l-2.1-2.642-7.464-.248.478,2.337a.346.346,0,0,1-.082.3.408.408,0,0,1-.29.116l-14.731-1.4a.424.424,0,0,1-.107-.027l-13.809-6.061-8.908,1.08c4.416,5.541,11.284,18.589,11.909,19.873a.835.835,0,0,1,.047.7c-.216.565-1.016.867-1.94,1.214-.753.285-1.69.637-1.824,1.048,0,0-.032.131.2.5,1.132,1.777,5.845,5.169,8.675,5.516,1.968.223,3.087,2.339,4.636,5.271a34.307,34.307,0,0,0,6.393,9.186c2.362,2.29,3.353,2.629,3.734,2.629a.234.234,0,0,0,.26-.164c.287-.7-.481-2.768-1.348-3.638-1.752-1.749-14.543-22.928-19.018-30.7-1.717-2.983-2.247-5.345-1.494-6.651a1.844,1.844,0,0,1,1.67-.917c1.7,0,3.752,1.616,5.224,4.121,2.039,3.481,11.369,15.492,19.6,26.088,5.979,7.7,11.141,14.342,12.449,16.354a4.632,4.632,0,0,1,.545,4.592c-.577,1.945-1.234,4.148,3.6,9.974,6.77,8.152,27.991,11.678,37.322,11.678a12.955,12.955,0,0,0,3.563-.325A3.945,3.945,0,0,1,890.574,371.239Z" transform="translate(-794.116 -293.306)" fill="#c4c4c4" stroke="#fff" stroke-width="0.15"/>
      </g>
      <g id="Grupo_112" data-name="Grupo 112" transform="translate(114.7 86.379)">
        <path id="Trazado_1952" data-name="Trazado 1952" d="M850.744,331.07l.131,2.6c-2.4-.6-6.6-1.1-10.331-2.067l3.534-3.3,3.333,1.665Z" transform="translate(-840.198 -327.959)" fill="#c4c4c4" stroke="#fff" stroke-width="0.15"/>
        <path id="Trazado_1953" data-name="Trazado 1953" d="M851.1,334.223h-.017a.328.328,0,0,1-.084-.01c-1.021-.255-2.354-.488-3.9-.758-2.012-.354-4.294-.756-6.433-1.308a.345.345,0,0,1-.148-.59l3.534-3.3a.346.346,0,0,1,.391-.057l3.33,1.665,3.286,1.08a.346.346,0,0,1,.238.312l.129,2.493a.348.348,0,0,1-.325.471Zm-9.644-2.594c1.93.468,3.957.823,5.763,1.14,1.341.235,2.523.443,3.494.662l-.1-1.9-3.107-1.026-3.162-1.578Z" transform="translate(-840.405 -328.165)" fill="#c4c4c4" stroke="#fff" stroke-width="0.15"/>
      </g>
      <g id="Grupo_113" data-name="Grupo 113" transform="translate(118.234 68.313)">
        <path id="Trazado_1954" data-name="Trazado 1954" d="M845.569,321.016l2.832.533a15.374,15.374,0,0,0-.766,3.2c-.3,3.368-.967,5.964.1,7.032l-3.933,1.232-.168-2.565-1.665-6.666Z" transform="translate(-841.624 -320.666)" fill="#c4c4c4" stroke="#fff" stroke-width="0.15"/>
        <path id="Trazado_1955" data-name="Trazado 1955" d="M844.011,333.567a.358.358,0,0,1-.2-.06.347.347,0,0,1-.149-.263l-.166-2.567-1.658-6.6a.345.345,0,0,1,.126-.357l3.6-2.768a.324.324,0,0,1,.275-.067l2.835.533a.359.359,0,0,1,.235.166.354.354,0,0,1,.027.288,14.933,14.933,0,0,0-.748,3.125c-.069.768-.158,1.5-.24,2.186-.26,2.158-.466,3.861.24,4.564a.35.35,0,0,1,.089.33.345.345,0,0,1-.233.248l-3.933,1.234A.459.459,0,0,1,844.011,333.567Zm-1.442-9.441,1.61,6.445.149,2.186,3.045-.952c-.56-1.006-.367-2.6-.114-4.71.082-.677.169-1.4.238-2.168a14.739,14.739,0,0,1,.657-2.9l-2.29-.431Z" transform="translate(-841.831 -320.875)" fill="#c4c4c4" stroke="#fff" stroke-width="0.15"/>
      </g>
      <g id="Grupo_114" data-name="Grupo 114" transform="translate(106.536 71.084)">
        <path id="Trazado_1956" data-name="Trazado 1956" d="M850.78,331.362l.1,1.9-1.933,4.165-3.534,3.3a19.4,19.4,0,0,1-5.364-2,17.636,17.636,0,0,1-2.8-2.168l.565-3.866h3.9l2.766-.833,1.965-1.933-5.565-5,1.933-2.8h6.133l1.665,6.665Z" transform="translate(-836.903 -321.788)" fill="#c4c4c4" stroke="#fff" stroke-width="0.15"/>
        <path id="Trazado_1957" data-name="Trazado 1957" d="M845.621,341.279a.309.309,0,0,1-.082-.01,19.473,19.473,0,0,1-5.464-2.039,18.012,18.012,0,0,1-2.854-2.208.353.353,0,0,1-.107-.3l.568-3.868a.344.344,0,0,1,.342-.295h3.848l2.634-.793,1.643-1.613-5.29-4.753a.347.347,0,0,1-.055-.456l1.933-2.8a.349.349,0,0,1,.287-.149h6.13a.347.347,0,0,1,.337.263l1.665,6.663.278,4.532a.343.343,0,0,1-.032.164l-1.933,4.165a.291.291,0,0,1-.08.109l-3.531,3.3A.353.353,0,0,1,845.621,341.279Zm-7.793-4.644a17.184,17.184,0,0,0,2.609,2,18.462,18.462,0,0,0,5.084,1.91l3.345-3.122,1.869-4.027-.26-4.376-1.591-6.341h-5.679l-1.655,2.4,5.338,4.795a.348.348,0,0,1,.01.505l-1.965,1.93a.357.357,0,0,1-.144.087l-2.765.833a.344.344,0,0,1-.1.015h-3.6Z" transform="translate(-837.11 -321.993)" fill="#c4c4c4" stroke="#fff" stroke-width="0.15"/>
      </g>
    </g>
  </g>
</svg>
