<?xml version="1.0" encoding="utf-8"?>
<!-- Generator: Adobe Illustrator 25.3.1, SVG Export Plug-In . SVG Version: 6.00 Build 0)  -->
<svg version="1.1" id="Layer_1" xmlns="http://www.w3.org/2000/svg" xmlns:xlink="http://www.w3.org/1999/xlink" x="0px" y="0px"
	 viewBox="0 0 540 78" style="enable-background:new 0 0 540 78;" xml:space="preserve">
<style type="text/css">
	.st0{fill:#CBDB29;stroke:#CBDB2A;stroke-width:1.709;stroke-miterlimit:10;}
	.st1{fill:#42B4E7;}
	.st2{fill:url(#SVGID_1_);}
</style>
<g>
	<g>
		<path class="st0" d="M289.74,53.91c0-1.6,0.34-2.9,1.02-3.9s1.64-1.5,2.88-1.5c2,0,3.38,0.1,4.13,0.3
			c0.75,0.2,1.57,0.42,2.45,0.66c0.88,0.24,2.06,0.52,3.55,0.85c1.48,0.33,3.05,0.5,4.7,0.5c1.83,0,3.31-0.13,4.45-0.4
			c1.14-0.27,2.02-0.63,2.63-1.09c0.61-0.46,1.03-0.98,1.26-1.56c0.23-0.58,0.34-1.2,0.34-1.85c0-1.34-0.53-2.36-1.58-3.08
			s-2.91-1.43-5.57-2.14l-6.62-1.84c-5.01-1.42-8.5-3.16-10.46-5.23c-1.96-2.07-2.94-4.65-2.94-7.76c0-1.66,0.34-3.27,1.02-4.83
			c0.68-1.56,1.74-2.92,3.19-4.08c1.45-1.16,3.31-2.11,5.59-2.83c2.28-0.73,5.07-1.09,8.36-1.09c5.38,0,11.04,1,16.99,2.99
			c0,0.3,0.02,0.57,0.05,0.79c0.03,0.23,0.05,0.46,0.05,0.7c0,1.78-0.33,3.19-0.97,4.21c-0.65,1.03-1.65,1.54-3.01,1.54
			c-1.36,0-3.08-0.32-5.16-0.95c-2.08-0.63-4.73-0.95-7.93-0.95c-2.96,0-5.04,0.37-6.25,1.11c-1.21,0.74-1.81,1.75-1.81,3.05
			c0,0.54,0.08,1.03,0.23,1.47c0.15,0.44,0.46,0.84,0.93,1.22c0.47,0.38,1.12,0.73,1.95,1.06c0.83,0.33,1.95,0.68,3.37,1.04
			l6.98,1.95c5.04,1.4,8.59,3.15,10.65,5.24c2.06,2.09,3.08,4.72,3.08,7.88c0,1.68-0.29,3.35-0.88,5.01c-0.59,1.66-1.59,3.13-3,4.42
			c-1.41,1.28-3.34,2.33-5.77,3.14c-2.43,0.81-5.5,1.21-9.2,1.21c-2.96,0-6.01-0.37-9.17-1.11s-6.24-1.47-9.27-2.18
			c-0.06-0.3-0.11-0.63-0.16-0.98C289.76,54.54,289.74,54.21,289.74,53.91z"/>
		<path class="st0" d="M331.87,75.96V14.11c0.69-0.19,1.39-0.36,2.08-0.51c0.69-0.16,1.48-0.23,2.36-0.23c1.99,0,3.36,0.52,4.1,1.55
			c0.74,1.03,1.17,2.45,1.29,4.24l0.09,1.76c1.6-2.34,3.59-4.26,5.98-5.74c2.39-1.48,5.37-2.22,8.97-2.22
			c2.44,0,4.82,0.52,7.15,1.55c2.33,1.03,4.41,2.52,6.24,4.48c1.83,1.96,3.31,4.38,4.43,7.28c1.13,2.9,1.69,6.19,1.69,9.89
			c0,4-0.61,7.45-1.83,10.36c-1.22,2.9-2.79,5.31-4.7,7.22c-1.92,1.91-4.08,3.32-6.49,4.24c-2.41,0.92-4.77,1.38-7.09,1.38
			c-3.35,0-6.2-0.66-8.54-1.99c-2.34-1.33-4.22-2.82-5.64-4.48v19.3c0,1.24-0.36,2.26-1.06,3.06c-0.71,0.8-2.06,1.2-4.05,1.2
			c-0.94,0-1.88-0.05-2.83-0.14C333.07,76.19,332.35,76.08,331.87,75.96z M341.97,44.75c1,1.77,2.48,3.26,4.46,4.46
			c1.98,1.2,4.27,1.8,6.86,1.8c1.9,0,3.66-0.35,5.28-1.06c1.61-0.7,2.98-1.7,4.1-2.99c1.12-1.29,1.98-2.83,2.58-4.61
			c0.6-1.79,0.91-3.74,0.91-5.88c0-1.89-0.26-3.72-0.77-5.49c-0.51-1.77-1.31-3.35-2.4-4.73c-1.09-1.38-2.44-2.48-4.05-3.31
			c-1.62-0.83-3.5-1.24-5.64-1.24c-2.24,0-4.39,0.54-6.46,1.62c-2.07,1.08-3.69,2.69-4.87,4.82V44.75z"/>
		<path class="st0" d="M379.7,36.12c0-3.14,0.57-6.11,1.7-8.92c1.13-2.81,2.71-5.26,4.72-7.38c2.01-2.11,4.43-3.79,7.25-5.02
			c2.82-1.24,5.93-1.86,9.34-1.86c3.4,0,6.51,0.62,9.32,1.85c2.81,1.24,5.21,2.91,7.2,5.02c1.99,2.11,3.54,4.57,4.64,7.37
			c1.11,2.8,1.66,5.79,1.66,8.95c0,3.16-0.53,6.16-1.59,9c-1.06,2.84-2.59,5.32-4.6,7.44c-2,2.12-4.41,3.79-7.22,5.01
			c-2.81,1.22-5.95,1.84-9.41,1.84c-3.46,0-6.61-0.6-9.43-1.79c-2.82-1.19-5.24-2.83-7.25-4.92c-2.01-2.09-3.57-4.55-4.68-7.39
			S379.7,39.42,379.7,36.12z M389.81,36.12c0,2.48,0.37,4.65,1.11,6.51c0.74,1.86,1.72,3.43,2.93,4.7c1.21,1.27,2.59,2.22,4.13,2.84
			c1.54,0.62,3.12,0.93,4.72,0.93c1.54,0,3.08-0.31,4.61-0.93c1.53-0.62,2.9-1.55,4.11-2.79c1.21-1.24,2.19-2.79,2.93-4.65
			c0.74-1.86,1.11-4.06,1.11-6.6c0-2.3-0.34-4.37-1.02-6.21c-0.68-1.84-1.6-3.4-2.75-4.67c-1.15-1.27-2.5-2.25-4.04-2.93
			c-1.54-0.68-3.19-1.02-4.95-1.02c-1.66,0-3.27,0.34-4.81,1.02c-1.54,0.68-2.92,1.66-4.13,2.93c-1.21,1.27-2.17,2.83-2.88,4.67
			C390.16,31.75,389.81,33.82,389.81,36.12z"/>
		<path class="st0" d="M430.71,58.61v-44.5c0.69-0.19,1.4-0.36,2.11-0.52c0.71-0.16,1.49-0.24,2.33-0.24c1.9,0,3.28,0.52,4.12,1.57
			c0.85,1.05,1.27,2.48,1.27,4.29v3.33h0.18c1.24-3.12,2.91-5.47,5.03-7.03c2.11-1.56,4.56-2.34,7.34-2.34
			c0.94,0,1.79,0.05,2.56,0.14c0.77,0.09,1.49,0.2,2.15,0.33c0.36,1.34,0.54,2.56,0.54,3.66c0,3.59-1.72,5.37-5.16,5.34h-1.68
			c-3.2,0-5.78,0.83-7.75,2.49c-1.96,1.66-2.94,4.24-2.94,7.75v21.96c0,1.23-0.36,2.24-1.06,3.03c-0.71,0.79-2.05,1.19-4.01,1.19
			c-0.94,0-1.89-0.05-2.85-0.14C431.92,58.84,431.2,58.73,430.71,58.61z"/>
		<path class="st0" d="M461.74,17.89c0-1.54,0.32-2.62,0.95-3.24c0.63-0.62,1.44-0.93,2.41-0.93h3.89V7.34
			c0-0.75,0.08-1.47,0.23-2.15c0.15-0.68,0.44-1.3,0.85-1.86c0.41-0.56,1.02-0.99,1.8-1.29c0.78-0.3,1.84-0.45,3.16-0.45
			c1.51,0,2.86,0.21,4.06,0.63v11.51h15.04c0.3,0.94,0.45,2.17,0.45,3.71c0,1.54-0.32,2.62-0.96,3.24c-0.64,0.62-1.44,0.93-2.4,0.93
			h-12.13v21.74c0,2.37,0.56,4.21,1.68,5.52c1.12,1.31,2.76,1.96,4.94,1.96c0.94,0,1.77-0.1,2.49-0.3c0.72-0.2,1.38-0.44,1.97-0.72
			c0.59-0.28,1.15-0.52,1.68-0.72c0.53-0.2,1.05-0.3,1.56-0.3c1.18,0,2.11,0.4,2.79,1.2c0.68,0.8,1.02,2.08,1.02,3.83v0.95
			c0,0.33-0.05,0.66-0.14,1c-1.78,1.06-3.68,1.89-5.68,2.49c-2.01,0.6-4.34,0.91-7,0.91c-2.42,0-4.58-0.39-6.49-1.15
			c-1.91-0.77-3.53-1.85-4.85-3.24c-1.32-1.39-2.33-3.03-3.02-4.91c-0.69-1.89-1.04-3.98-1.04-6.27V21.61h-6.89
			c-0.12-0.42-0.21-0.97-0.27-1.65C461.77,19.27,461.74,18.59,461.74,17.89z"/>
		<path class="st0" d="M501.34,53.91c0-1.6,0.34-2.9,1.02-3.9c0.68-1,1.64-1.5,2.88-1.5c2,0,3.38,0.1,4.13,0.3
			c0.75,0.2,1.57,0.42,2.45,0.66c0.88,0.24,2.06,0.52,3.55,0.85c1.48,0.33,3.05,0.5,4.7,0.5c1.83,0,3.31-0.13,4.45-0.4
			c1.14-0.27,2.02-0.63,2.63-1.09c0.61-0.46,1.03-0.98,1.26-1.56c0.23-0.58,0.34-1.2,0.34-1.85c0-1.34-0.53-2.36-1.58-3.08
			c-1.06-0.71-2.91-1.43-5.57-2.14l-6.62-1.84c-5.01-1.42-8.5-3.16-10.46-5.23c-1.96-2.07-2.94-4.65-2.94-7.76
			c0-1.66,0.34-3.27,1.02-4.83c0.68-1.56,1.74-2.92,3.19-4.08c1.45-1.16,3.31-2.11,5.59-2.83c2.28-0.73,5.07-1.09,8.36-1.09
			c5.38,0,11.04,1,16.99,2.99c0,0.3,0.02,0.57,0.05,0.79c0.03,0.23,0.05,0.46,0.05,0.7c0,1.78-0.33,3.19-0.97,4.21
			c-0.65,1.03-1.65,1.54-3.01,1.54c-1.36,0-3.08-0.32-5.16-0.95c-2.08-0.63-4.73-0.95-7.93-0.95c-2.96,0-5.04,0.37-6.25,1.11
			c-1.21,0.74-1.81,1.75-1.81,3.05c0,0.54,0.08,1.03,0.23,1.47c0.15,0.44,0.46,0.84,0.93,1.22c0.47,0.38,1.12,0.73,1.95,1.06
			c0.83,0.33,1.95,0.68,3.37,1.04l6.98,1.95c5.04,1.4,8.59,3.15,10.65,5.24c2.06,2.09,3.08,4.72,3.08,7.88
			c0,1.68-0.29,3.35-0.88,5.01c-0.59,1.66-1.59,3.13-3,4.42c-1.41,1.28-3.34,2.33-5.77,3.14c-2.43,0.81-5.5,1.21-9.2,1.21
			c-2.96,0-6.01-0.37-9.17-1.11c-3.15-0.74-6.24-1.47-9.27-2.18c-0.06-0.3-0.11-0.63-0.16-0.98
			C501.36,54.54,501.34,54.21,501.34,53.91z"/>
	</g>
	<g>
		<path class="st1" d="M4.38,47.73c0.63,0.1,1.33,0.15,2.15,0.15c1.64,0,2.88-0.37,3.81-1.12c0.47-0.38,0.85-0.81,1.14-1.27
			c0.46,0.35,0.95,0.67,1.47,0.96c2.05,1.15,4.35,1.73,6.82,1.73c2.27,0,4.38-0.47,6.28-1.4c1.89-0.92,3.53-2.22,4.88-3.87
			c1.31-1.6,2.35-3.48,3.08-5.58c0.72-2.09,1.09-4.38,1.09-6.81c0-2.76-0.44-5.23-1.31-7.36c-0.87-2.12-2.02-3.93-3.44-5.39
			c-1.43-1.48-3.09-2.6-4.92-3.35c-1.81-0.74-3.67-1.12-5.52-1.12c-2.7,0-5.02,0.54-6.9,1.61c-0.12,0.07-0.24,0.14-0.36,0.21V2.77
			l-1.7-0.42c-0.42-0.1-0.98-0.19-1.72-0.27C8.52,2,7.81,1.96,7.12,1.96c-1.98,0-3.39,0.51-4.32,1.57C1.99,4.47,1.56,5.67,1.56,7.02
			v27.05c0,1.38-0.02,3.09-0.06,5.14c-0.04,2.04-0.12,4.03-0.23,5.92l-0.11,1.84l1.78,0.46C3.32,47.54,3.79,47.63,4.38,47.73z
			 M24.01,30.63c0,2.51-0.59,4.38-1.76,5.57c-1.18,1.19-2.58,1.77-4.29,1.77c-0.76,0-1.46-0.13-2.12-0.4
			c-0.66-0.27-1.21-0.63-1.68-1.09c-0.47-0.47-0.83-1-1.1-1.64c-0.27-0.62-0.4-1.29-0.4-2.03v-6.72c0.47-0.71,1.09-1.29,1.86-1.75
			c0.93-0.56,2.02-0.83,3.32-0.83c1.84,0,3.28,0.59,4.42,1.81C23.43,26.58,24.01,28.32,24.01,30.63z"/>
		<path class="st1" d="M40.87,47.96c0.69,0.07,1.39,0.1,2.07,0.1c2,0,3.41-0.5,4.33-1.54c0.82-0.93,1.26-2.14,1.26-3.49V2.68
			l-1.7-0.42c-0.42-0.1-0.98-0.19-1.72-0.27c-0.71-0.08-1.42-0.12-2.11-0.12c-1.98,0-3.39,0.51-4.32,1.57
			c-0.82,0.94-1.25,2.14-1.25,3.49v40.34l1.7,0.42C39.56,47.8,40.11,47.88,40.87,47.96z"/>
		<path class="st1" d="M83.63,42.16c-0.11-0.8-0.21-1.61-0.28-2.42c-0.08-0.81-0.13-1.67-0.15-2.58c-0.03-0.92-0.04-2-0.04-3.18
			V14.41l-1.69-0.42c-0.43-0.11-0.99-0.19-1.72-0.26c-0.69-0.07-1.4-0.1-2.11-0.1c-1.9,0-3.34,0.51-4.26,1.52
			c-0.85,0.94-1.3,2.15-1.3,3.52v16.88c-0.59,0.85-1.27,1.49-2.05,1.95c-0.91,0.53-1.81,0.79-2.76,0.79c-1.3,0-2.26-0.36-3.03-1.12
			c-0.93-0.93-1.12-2.71-1.12-4.04V14.39l-1.73-0.4c-0.44-0.1-0.99-0.19-1.69-0.26c-0.67-0.07-1.38-0.1-2.1-0.1
			c-1.88,0-3.3,0.5-4.23,1.49c-0.88,0.94-1.34,2.16-1.34,3.54v14.96c0,2.41,0.34,4.55,1,6.34c0.68,1.84,1.62,3.39,2.8,4.62
			c1.2,1.25,2.62,2.19,4.22,2.79c1.54,0.58,3.19,0.87,4.92,0.87c2.73,0,5.09-0.6,7-1.79c0.51-0.32,1.01-0.67,1.48-1.05
			c0.36,0.65,0.87,1.22,1.52,1.69c0.89,0.65,2.07,0.97,3.58,0.97h0c1.62,0.02,3.06-0.26,4.33-0.84l1.62-0.74l-0.36-1.74
			C83.89,43.81,83.74,42.94,83.63,42.16z"/>
		<path class="st1" d="M117.11,24.06c-0.68-1.99-1.7-3.81-3.03-5.4c-1.36-1.62-3.07-2.94-5.08-3.9c-2.03-0.97-4.38-1.46-6.98-1.46
			c-2.34,0-4.55,0.45-6.58,1.35c-2.01,0.89-3.77,2.13-5.25,3.69c-1.47,1.55-2.63,3.41-3.47,5.51c-0.83,2.1-1.26,4.42-1.26,6.89
			c0,2.46,0.41,4.78,1.21,6.91c0.82,2.16,2.01,4.06,3.55,5.66c1.55,1.61,3.48,2.88,5.72,3.76c2.2,0.87,4.71,1.31,7.46,1.31
			c2.47,0,4.74-0.26,6.74-0.77c1.94-0.49,3.59-1.04,4.91-1.62l1.13-0.5l0.18-1.22c0.05-0.32,0.08-0.63,0.11-0.94
			c0.02-0.31,0.04-0.6,0.04-0.86c0-1.6-0.37-2.95-1.1-3.99c-0.88-1.25-2.17-1.94-3.63-1.94c-0.73,0-1.47,0.11-2.21,0.33
			c-0.57,0.17-1.2,0.38-1.88,0.61c-0.54,0.19-1.16,0.36-1.87,0.49c-0.66,0.13-1.48,0.2-2.42,0.2c-2.02,0-3.64-0.46-4.79-1.37
			c-0.48-0.38-0.88-0.84-1.18-1.4h19.92l0.38-1.77c0.25-1.16,0.38-2.35,0.38-3.52C118.12,28.07,117.78,26.03,117.11,24.06z
			 M97.19,26.18c0.28-0.7,0.66-1.31,1.14-1.83c0.88-0.95,2.09-1.41,3.69-1.41c1.67,0,2.9,0.47,3.74,1.45
			c0.47,0.54,0.84,1.13,1.11,1.79H97.19z"/>
	</g>
	<linearGradient id="SVGID_1_" gradientUnits="userSpaceOnUse" x1="195.6544" y1="60.1455" x2="280.4855" y2="7.0875">
		<stop  offset="0.0918" style="stop-color:#E6E414"/>
		<stop  offset="0.3135" style="stop-color:#8BC53F"/>
		<stop  offset="0.6191" style="stop-color:#00ACDC"/>
		<stop  offset="0.9175" style="stop-color:#A969AA"/>
	</linearGradient>
	<path class="st2" d="M278.48,5.9h-81.06c-1.69,0-3.08,1.39-3.08,3.08V58.4c0,1.69,1.39,3.08,3.08,3.08h81.06
		c1.69,0,3.08-1.39,3.08-3.08V8.98C281.56,7.29,280.17,5.9,278.48,5.9z M272.44,58.81h-68.97V8.58h68.97V58.81z M206.78,46.53
		c0,1.52,0.35,2.95,1.04,4.25c0.69,1.29,1.71,2.42,3.04,3.35c1.28,0.89,2.88,1.61,4.76,2.13c1.85,0.51,4.01,0.77,6.42,0.77
		c2.77,0,5.17-0.31,7.12-0.91c1.99-0.62,3.64-1.45,4.9-2.49c1.28-1.05,2.24-2.27,2.85-3.6c0.6-1.33,0.91-2.68,0.91-4.04
		c0-2.19-0.75-4.1-2.23-5.69c-1.47-1.58-3.9-2.59-7.42-3.07l-7.82-1.1c-0.47-0.08-0.85-0.16-1.14-0.25
		c0.07,0.01,0.15,0.03,0.22,0.05c0.55,0.12,1.3,0.18,2.38,0.18c4.3,0,7.7-1,10.1-2.96c2.49-2.04,3.75-4.84,3.75-8.34
		c0-1.65-0.42-3.23-1.26-4.7c-0.28-0.49-0.59-0.96-0.92-1.39c0.67-0.1,1.27-0.26,1.8-0.48c0.76-0.31,1.39-0.76,1.87-1.33
		c0.56-0.66,0.84-1.53,0.84-2.59c0-0.86-0.27-1.65-0.81-2.37c-0.49-0.65-1.05-1.13-1.67-1.42c-0.35-0.17-0.75-0.18-1.12-0.05
		c-0.49,0.18-1.1,0.42-1.79,0.72c-0.01,0-0.02,0.01-0.03,0.01l-2.09,0.97l-2.08,1.02l-1.33,0.67c-1.74-0.59-3.59-0.89-5.49-0.89
		c-2.14,0-4.08,0.29-5.76,0.86c-1.71,0.58-3.19,1.39-4.4,2.42c-1.24,1.05-2.19,2.32-2.84,3.79c-0.64,1.45-0.97,3.03-0.97,4.7
		c0,2.43,0.66,4.51,1.97,6.19c0.72,0.92,1.53,1.72,2.42,2.4c-0.24,0.22-0.45,0.45-0.63,0.68c-0.69,0.88-1.04,1.94-1.04,3.16
		c0,0.81,0.19,1.56,0.56,2.22C208.17,41.16,206.78,43.55,206.78,46.53z M218.18,21.64c0.88-0.77,2.01-1.15,3.46-1.15
		c1.52,0,2.66,0.38,3.49,1.15c0.8,0.74,1.19,1.78,1.19,3.16c0,1.29-0.4,2.28-1.23,3.01c-0.87,0.78-2,1.15-3.46,1.15
		c-1.43,0-2.55-0.39-3.44-1.18c-0.84-0.75-1.25-1.75-1.25-3.04C216.96,23.37,217.36,22.36,218.18,21.64z M215.98,43.38
		c0.23,0.1,0.48,0.2,0.76,0.31c0.7,0.27,1.72,0.53,3.15,0.79l5.58,0.91c1.92,0.34,2.6,0.66,2.81,0.78c0.06,0.04,0.21,0.13,0.21,0.63
		c0,0.02-0.01,0.16-0.19,0.47c-0.15,0.24-0.43,0.49-0.82,0.73c-0.47,0.29-1.11,0.55-1.9,0.77c-0.79,0.22-1.79,0.33-2.96,0.33
		c-2.71,0-4.73-0.42-5.84-1.22c-1-0.73-1.47-1.61-1.47-2.78C215.31,44.4,215.52,43.85,215.98,43.38z M236.51,29.3
		c0,2.27,0.39,4.42,1.15,6.39c0.77,1.98,1.88,3.73,3.29,5.19c1.41,1.46,3.13,2.63,5.1,3.46c1.97,0.83,4.18,1.26,6.57,1.26
		c2.4,0,4.61-0.43,6.58-1.29c1.96-0.85,3.67-2.04,5.08-3.52c1.41-1.48,2.49-3.24,3.24-5.23c0.73-1.96,1.11-4.07,1.11-6.24
		c0-2.19-0.39-4.28-1.16-6.23c-0.77-1.95-1.86-3.68-3.25-5.16c-1.4-1.48-3.1-2.67-5.06-3.53c-1.97-0.87-4.16-1.3-6.52-1.3
		c-2.36,0-4.56,0.44-6.53,1.3c-1.97,0.86-3.68,2.05-5.09,3.53c-1.41,1.47-2.52,3.21-3.3,5.16C236.91,25.02,236.51,27.12,236.51,29.3
		z M246.33,20.12c0-0.64,0.35-1.23,0.92-1.54c0.57-0.3,1.26-0.27,1.79,0.09l13.82,9.22c0.48,0.32,0.78,0.87,0.78,1.45
		c0,0.58-0.29,1.13-0.78,1.45l-13.82,9.22c-0.29,0.19-0.63,0.29-0.97,0.29c-0.28,0-0.56-0.07-0.82-0.21
		c-0.57-0.3-0.92-0.89-0.92-1.54V20.12z"/>
	<g>
		<path class="st1" d="M146.91,36.16c-0.65,0-1.3,0.12-1.93,0.36c-0.43,0.16-0.89,0.36-1.36,0.59c-0.28,0.13-0.61,0.25-0.98,0.36
			c-0.3,0.08-0.67,0.12-1.11,0.12c-1.18,0-1.53-0.4-1.64-0.53c-0.4-0.47-0.6-1.24-0.6-2.3V21.94h6.1c1.29,0,2.44-0.46,3.33-1.32
			c0.93-0.9,1.4-2.24,1.4-3.98c0-1.34-0.14-2.42-0.43-3.32l-0.53-1.66h-9.88V4.3l-1.59-0.56c-1.09-0.38-2.31-0.58-3.63-0.58
			c-1.23,0-2.23,0.16-3.07,0.48c-0.98,0.38-1.75,0.95-2.32,1.71c-0.49,0.66-0.83,1.4-1.01,2.19c-0.15,0.64-0.22,1.33-0.22,2.03v2.08
			h-0.33c-1.3,0-2.46,0.46-3.35,1.33c-0.92,0.9-1.38,2.23-1.38,3.97c0,0.56,0.02,1.11,0.07,1.65c0.06,0.63,0.14,1.16,0.27,1.6
			l0.49,1.74h4.24v12.97c0,1.88,0.29,3.63,0.87,5.21c0.6,1.62,1.48,3.06,2.62,4.26c1.16,1.22,2.58,2.17,4.23,2.83
			c1.62,0.65,3.44,0.98,5.43,0.98c2.08,0,3.96-0.25,5.58-0.74c1.58-0.48,3.1-1.14,4.5-1.97l0.83-0.49l0.25-0.94
			c0.12-0.44,0.18-0.88,0.18-1.32v-0.67c0-1.83-0.42-3.21-1.28-4.22C149.74,36.75,148.44,36.16,146.91,36.16z"/>
		<path class="st1" d="M182.95,16.67c-1.61-1.7-3.56-3.07-5.81-4.06c-2.26-0.99-4.78-1.5-7.48-1.5s-5.22,0.5-7.49,1.5
			c-2.25,0.99-4.22,2.35-5.84,4.05c-1.61,1.69-2.89,3.68-3.79,5.91c-0.9,2.24-1.36,4.64-1.36,7.13c0,2.59,0.44,5.05,1.32,7.3
			c0.88,2.28,2.15,4.28,3.78,5.96c1.63,1.68,3.6,3.02,5.86,3.98c2.26,0.96,4.79,1.44,7.52,1.44c2.74,0,5.27-0.5,7.53-1.48
			c2.25-0.98,4.22-2.34,5.83-4.05c1.62-1.7,2.87-3.73,3.72-6.01c0.84-2.25,1.26-4.64,1.26-7.13c0-2.5-0.45-4.9-1.33-7.13
			C185.8,20.35,184.54,18.36,182.95,16.67z M176.17,29.7c0,1.46-0.2,2.72-0.61,3.73c-0.4,1-0.92,1.83-1.54,2.47
			c-0.62,0.63-1.29,1.09-2.06,1.41c-1.62,0.66-3.17,0.62-4.73,0c-0.77-0.31-1.44-0.77-2.05-1.41c-0.63-0.66-1.15-1.51-1.56-2.52
			c-0.4-1.01-0.61-2.25-0.61-3.67c0-1.31,0.2-2.48,0.59-3.49c0.38-0.99,0.89-1.82,1.51-2.48c0.63-0.66,1.33-1.16,2.12-1.51
			c0.78-0.34,1.57-0.51,2.4-0.51c0.9,0,1.72,0.17,2.5,0.51c0.78,0.34,1.43,0.82,2.02,1.46c0.59,0.66,1.08,1.5,1.45,2.49
			C175.98,27.2,176.17,28.38,176.17,29.7z"/>
	</g>
</g>
</svg>
