<svg xmlns="http://www.w3.org/2000/svg" xmlns:xlink="http://www.w3.org/1999/xlink" width="40" height="40" viewBox="0 0 40 40">
  <defs>
    <linearGradient id="linear-gradient" x1="0.028" y1="0.5" x2="1" y2="0.5" gradientUnits="objectBoundingBox">
      <stop offset="0" stop-color="#22a6fb"/>
      <stop offset="0.713" stop-color="#5253f0"/>
      <stop offset="1" stop-color="#5a45ee"/>
    </linearGradient>
    <clipPath id="clip-path">
      <rect id="Rectángulo_397" data-name="Rectángulo 397" width="20" height="20" fill="none" stroke="#fff" stroke-width="0.5"/>
    </clipPath>
  </defs>
  <g id="ic_cerrarsesion" transform="translate(-82 -599)">
    <path id="Trazado_1761" data-name="Trazado 1761" d="M20,0A20,20,0,1,1,0,20,20.061,20.061,0,0,1,20,0Z" transform="translate(82 599)" fill="url(#linear-gradient)"/>
    <g id="ic_logout" transform="translate(92 609)">
      <g id="Artwork_2" data-name="Artwork 2" transform="translate(0 0)" clip-path="url(#clip-path)">
        <path id="Trazado_1027" data-name="Trazado 1027" d="M11.907,10.916a.708.708,0,0,0,.708-.8V2.508a.708.708,0,1,0-1.416,0V10.12a.708.708,0,0,0,.708.8" transform="translate(-1.759 -0.679)" fill="#fff" stroke="#fff" stroke-width="0.5"/>
        <path id="Trazado_1028" data-name="Trazado 1028" d="M3.721,6.986a8.585,8.585,0,1,0,10.887-3.1.62.62,0,0,0-.8.266.62.62,0,0,0,.266.8,7.258,7.258,0,1,1-6.284,0,.62.62,0,0,0,.266-.8L7.7,3.8H7.173a8.585,8.585,0,0,0-3.54,3.1" transform="translate(-0.742 -0.909)" fill="#fff" stroke="#fff" stroke-width="0.5"/>
      </g>
    </g>
  </g>
</svg>
