<svg id="chat_solito" xmlns="http://www.w3.org/2000/svg" width="58.23" height="54.185" viewBox="0 0 58.23 54.185">
  <path id="Trazado_1881" data-name="Trazado 1881" d="M80.056,15.35H41.427A2.745,2.745,0,0,0,38.68,18.1V49.662a2.747,2.747,0,0,0,2.747,2.747h23.3l11.51,10.935.287-10.935h3.53A2.747,2.747,0,0,0,82.8,49.662V18.1A2.75,2.75,0,0,0,80.056,15.35ZM45.8,30.96a3.988,3.988,0,1,1,3.988-3.988A3.988,3.988,0,0,1,45.8,30.96Zm10.69,0a3.988,3.988,0,1,1,3.988-3.988A3.988,3.988,0,0,1,56.492,30.96Z" transform="translate(-24.573 -9.16)" fill="#4cd5ff"/>
  <g id="Grupo_5035" data-name="Grupo 5035" transform="translate(0 0)">
    <path id="Trazado_1875" data-name="Trazado 1875" d="M45.088.48H7.467A2.677,2.677,0,0,0,4.79,3.157V33.9a2.677,2.677,0,0,0,2.677,2.677H10.9l.279,10.648,11.21-10.648H45.088A2.677,2.677,0,0,0,47.765,33.9V3.157A2.677,2.677,0,0,0,45.088.48ZM14.8,22.071a3.825,3.825,0,1,1,3.825-3.825A3.823,3.823,0,0,1,14.8,22.071Zm11.318,0a3.825,3.825,0,1,1,3.825-3.825A3.823,3.823,0,0,1,26.119,22.071Zm10.586,0a3.825,3.825,0,1,1,3.825-3.825A3.823,3.823,0,0,1,36.7,22.071Z" transform="translate(-4.79 -0.48)" fill="#fff"/>
    <path id="Trazado_1876" data-name="Trazado 1876" d="M38.386,21.235a3.84,3.84,0,0,1-2.36,2.381L19.6,40.163l.229,8.821,11.21-10.648H53.733a2.677,2.677,0,0,0,2.677-2.677V4.914A2.674,2.674,0,0,0,56,3.49Zm6.964,2.593A3.825,3.825,0,1,1,49.175,20,3.823,3.823,0,0,1,45.35,23.829Z" transform="translate(-13.435 -2.237)" fill="#e5fbff"/>
  </g>
</svg>
