<svg width="28" height="28" viewBox="0 0 28 28" fill="none" xmlns="http://www.w3.org/2000/svg">
<path d="M13.9998 7.58333C18.4215 7.58333 22.3648 10.0683 24.2898 14C22.3648 17.9317 18.4332 20.4167 13.9998 20.4167C9.5665 20.4167 5.63484 17.9317 3.70984 14C5.63484 10.0683 9.57817 7.58333 13.9998 7.58333ZM13.9998 5.25C8.1665 5.25 3.18484 8.87833 1.1665 14C3.18484 19.1217 8.1665 22.75 13.9998 22.75C19.8332 22.75 24.8148 19.1217 26.8332 14C24.8148 8.87833 19.8332 5.25 13.9998 5.25ZM13.9998 11.0833C15.6098 11.0833 16.9165 12.39 16.9165 14C16.9165 15.61 15.6098 16.9167 13.9998 16.9167C12.3898 16.9167 11.0832 15.61 11.0832 14C11.0832 12.39 12.3898 11.0833 13.9998 11.0833ZM13.9998 8.75C11.1065 8.75 8.74984 11.1067 8.74984 14C8.74984 16.8933 11.1065 19.25 13.9998 19.25C16.8932 19.25 19.2498 16.8933 19.2498 14C19.2498 11.1067 16.8932 8.75 13.9998 8.75Z" fill="#161616"/>
</svg>
