<svg width="28" height="28" viewBox="0 0 28 28" fill="none" xmlns="http://www.w3.org/2000/svg">
<path d="M26.8532 22.3953L3.44814 4.11742C3.33072 4.03914 3.17417 4 3.05675 4C2.82192 4 2.66536 4.07828 2.54795 4.19569L2.15656 4.7045C2.07828 4.82192 2 4.93933 2 5.09589C2 5.29159 2.11742 5.48728 2.27397 5.56556L25.6791 23.8826C25.7573 23.9609 25.9139 24 26.0313 24C26.2661 24 26.4227 23.9217 26.5401 23.7652L26.9315 23.2955C27.0098 23.1781 27.0881 23.0607 27.0881 22.9041C27.0881 22.7084 26.9706 22.5127 26.8532 22.3953ZM13.6243 9.71429L18.908 13.8239C18.8297 11.4755 16.9119 9.59687 14.5636 9.59687C14.2505 9.63601 13.9374 9.63601 13.6243 9.71429ZM15.4638 18.2857L10.18 14.1761C10.2583 16.5245 12.1761 18.364 14.5636 18.364C14.8376 18.364 15.1507 18.364 15.4638 18.2857ZM14.5636 8.34442C18.3992 8.34442 21.9609 10.4971 23.8395 13.9804C23.3699 14.8806 22.8219 15.6634 22.1174 16.3679L23.6047 17.5029C24.4266 16.6419 25.1311 15.6634 25.6791 14.5675C25.7573 14.411 25.8356 14.2153 25.8356 14.0196C25.8356 13.7847 25.7573 13.589 25.6791 13.4325C23.5656 9.28376 19.3386 6.46575 14.5636 6.46575C13.1155 6.46575 11.7456 6.73973 10.454 7.20939L12.2544 8.65753C12.998 8.46184 13.7808 8.34442 14.5636 8.34442ZM14.5636 19.6164C10.6888 19.6164 7.1272 17.4638 5.24853 13.9804C5.7182 13.1194 6.26615 12.3366 6.97065 11.6321L5.48337 10.4971C4.66145 11.3581 3.95695 12.3366 3.409 13.4325C3.33072 13.589 3.29159 13.7847 3.29159 13.9804C3.29159 14.2153 3.33072 14.411 3.409 14.5675C5.52251 18.7162 9.74951 21.4951 14.5636 21.4951C15.9726 21.4951 17.3425 21.2211 18.6341 20.7906L16.8337 19.3425C16.09 19.5382 15.3072 19.6164 14.5636 19.6164Z" fill="#161616"/>
</svg>
